<svg width="24" height="24" viewBox="0 0 24 24" fill="none" xmlns="http://www.w3.org/2000/svg">
<g clip-path="url(#clip0_4014_3105)">
<path d="M5.75718 9.91244L10.5144 12.4277L11.736 13.0681L12.7816 12.5671L17.8856 10.1139M5.75718 9.91244L1 7.40236L11.4772 2L23 7.66576L17.8856 10.1139M5.75718 9.91244L1 12.3709L5.75718 14.8758M17.8856 10.1139L23 12.6291L17.8856 15.0824M5.75718 14.8758L11.736 18.0315L17.8856 15.0824M5.75718 14.8758L1 17.3342L11.736 23L23 17.5925L17.8856 15.0824M5.75718 14.8758H5.76235M9.11671 16.6318L15.2612 13.6776L20.3755 11.2295M6.32141 15.1857L11.4254 12.7376M3.81082 13.7447L8.63012 11.4309" stroke="#022E43" stroke-miterlimit="10"/>
</g>
<defs>
<clipPath id="clip0_4014_3105">
<rect width="24" height="24" fill="white"/>
</clipPath>
</defs>
</svg>
