<svg width="24" height="24" viewBox="0 0 24 24" fill="none" xmlns="http://www.w3.org/2000/svg">
<path d="M23 4.74158H19.4621M16.1369 4.74158H1M23 12.0028H8.02545M4.70025 12.0028H1M23 19.264H19.4621M16.1369 19.264H1M19.5461 4.73601C19.5461 5.69479 18.7641 6.47202 17.7995 6.47202C16.8349 6.47202 16.0529 5.69479 16.0529 4.73601C16.0529 3.77724 16.8349 3 17.7995 3C18.7641 3 19.5461 3.77724 19.5461 4.73601ZM8.10941 12.0028C8.10941 12.9616 7.32745 13.7388 6.36285 13.7388C5.39825 13.7388 4.61629 12.9616 4.61629 12.0028C4.61629 11.044 5.39825 10.2668 6.36285 10.2668C7.32745 10.2668 8.10941 11.044 8.10941 12.0028ZM19.5461 19.264C19.5461 20.2228 18.7641 21 17.7995 21C16.8349 21 16.0529 20.2228 16.0529 19.264C16.0529 18.3052 16.8349 17.528 17.7995 17.528C18.7641 17.528 19.5461 18.3052 19.5461 19.264Z" stroke="#022E43" stroke-miterlimit="10"/>
</svg>
