<svg xmlns="http://www.w3.org/2000/svg" shape-rendering="geometricPrecision" text-rendering="geometricPrecision" image-rendering="optimizeQuality" fill-rule="evenodd" clip-rule="evenodd" viewBox="0 0 509.01 511.96"><path fill-rule="nonzero" d="M217.27 187.4c3.69-3.69 9.67-3.69 13.35 0 3.69 3.69 3.69 9.67 0 13.35L46.84 384.54 22.21 489.38l102.21-27.11L307.29 279.4c3.69-3.68 9.67-3.68 13.36 0a9.446 9.446 0 0 1 0 13.36L136.01 477.4a9.636 9.636 0 0 1-4.28 2.43l-119.49 31.7c-1.55.48-3.25.57-4.94.18-5.08-1.18-8.23-6.26-7.05-11.33l28.74-122.33c.33-1.83 1.2-3.57 2.61-4.98L217.27 187.4zm.02-45.44a9.434 9.434 0 0 1 0-13.35c3.69-3.69 9.67-3.69 13.35 0l142.53 142.52c3.68 3.69 3.68 9.67 0 13.35a9.446 9.446 0 0 1-13.36 0L217.29 141.96zm164.88 89.27a9.434 9.434 0 0 1-13.35 0c-3.69-3.68-3.69-9.66 0-13.35l27.33-27.33c2.09-2.09 4.92-3 7.65-2.72 5.36.1 10.7-.3 16.04-1.21 23.54-3.96 43.05-17.21 56.25-36.85 6.01-8.95 10.35-19.52 12.45-30.09 4.28-21.49-.36-44.51-12.49-62.72-9.47-14.2-22.9-25.34-38.71-31.79l-.43-.18c-20.6-8.18-42.78-8.13-63.34.17-21.12 8.67-38.73 26.17-46.94 47.55l-.01.03c-2.09 5.43-3.6 10.89-4.51 16.39a77.035 77.035 0 0 0-.93 16.64c.14 2.86-1 5.49-2.92 7.31l-28.23 27.83c-3.71 3.64-9.68 3.59-13.32-.11-3.65-3.71-3.6-9.68.11-13.32l25.42-25.05c-.1-12.58 2.29-24.75 6.83-36.47 10.12-26.23 31.42-47.7 57.43-58.28h.03c25.18-10.17 52.18-10.24 77.4-.18l.49.18c45.13 18.37 72.3 67.03 62.65 115.61-2.6 13.01-7.95 25.96-15.34 36.96-16.27 24.24-40.15 40.13-68.79 44.97-5.33.9-10.73 1.38-16.19 1.44l-24.58 24.57z"/></svg>