<?xml version="1.0" encoding="UTF-8"?>
<svg id="sello" xmlns="http://www.w3.org/2000/svg" version="1.1" viewBox="0 0 91.4 91.2">
  <!-- Generator: Adobe Illustrator 29.1.0, SVG Export Plug-In . SVG Version: 2.1.0 Build 142)  -->
  <g id="imagen">
    <path d="M45.7,70.6c-8.5,0-15-11.1-18.1-17.7-2-4.2-2.4-8.8-1.2-12.9,1-3.6,3.1-6.3,6.1-8.1.2-.1.4,0,.5.1,0,.2,0,.4-.1.5-2.9,1.7-4.8,4.3-5.8,7.7-1.1,4-.7,8.3,1.2,12.4,3,6.5,9.3,17.3,17.4,17.3s14.4-10.8,17.4-17.3c1.9-4,2.3-8.4,1.2-12.4-1-3.4-2.9-6-5.8-7.7-.2,0-.2-.3-.1-.5,0-.2.3-.2.5-.1,3,1.8,5,4.5,6.1,8.2,1.2,4.1.7,8.7-1.2,12.9-3.1,6.6-9.5,17.7-18,17.7h0Z"/>
    <path d="M33.1,38.7c-.8,0-1.5,0-2-.1-.1,0-.2,0-.3-.2s0-.3,0-.4c1.6-2.1,4.9-6,8.3-7.9h0c3.4-1.9,6-.4,6.9.4.1.1.2.3,0,.4-3.2,6.5-9.2,7.7-13,7.7h0ZM31.8,37.9c3.3.2,10-.2,13.5-7-1-.7-3.1-1.7-5.9-.2h0c-3,1.7-6,5-7.7,7.2ZM39.3,30.5h0Z"/>
    <path d="M58.5,38.7c-3.8,0-9.8-1.2-13-7.7,0-.1,0-.3,0-.4.9-.8,3.5-2.3,6.9-.4,3.4,1.9,6.6,5.7,8.3,7.9,0,0,0,.2,0,.4s-.2.2-.3.2c-.5,0-1.2.1-2,.1h0ZM46.3,30.9c3.5,6.8,10.2,7.2,13.5,7-1.7-2.1-4.6-5.5-7.7-7.2-2.8-1.6-4.9-.5-5.9.2Z"/>
    <path d="M35.4,33.8c0,0-.1,0-.2,0-.5-.3-5-2.8-5.9-3.7,0,0-.1-.2,0-.3,0-.1,0-.2.2-.2.1,0,2.9-1.6,6.3-2.4,4.6-1.1,8.1-.3,10.2,2.3.1.1,0,.4,0,.5-.2.1-.4.1-.5,0-4-5.1-13.1-1-15.2,0,1.1.9,4.1,2.6,5.3,3.2.2,0,.2.3.1.5,0,.1-.2.2-.3.2h0Z"/>
    <path d="M45.8,31.2h0c-.2,0-.3-.2-.3-.4,0,0,.1-2.6-1.2-5.2-1.3-2.6-4.6-4.3-4.7-4.3-.2,0-.2-.3-.2-.5s.3-.2.5-.2c.2,0,3.6,1.8,5,4.6,1.3,2.8,1.2,5.4,1.2,5.5,0,.2-.2.3-.4.3Z"/>
    <path d="M56.4,33.6c-.1,0-.2,0-.3-.2,0-.2,0-.4.1-.5,1.1-.6,3.9-2.2,5-3.1-2.1-1-11.1-5.1-15.2,0-.1.1-.3.2-.5,0s-.2-.4,0-.5c2.1-2.6,5.6-3.4,10.2-2.3,3.4.8,6.2,2.3,6.3,2.4,0,0,.2.1.2.2s0,.2,0,.3c-.9,1-5.1,3.3-5.6,3.6,0,0-.1,0-.2,0h0Z"/>
    <path d="M30.9,47.3c-.2,0-.4-.2-.4-.4v-3.2c0-.2.2-.4.4-.4s.4.2.4.4v3.2c0,.2-.2.4-.4.4Z"/>
    <path d="M56.6,46.6c-.2,0-.4-.2-.4-.4v-3.2c0-.2.2-.4.4-.4s.4.2.4.4v3.2c0,.2-.2.4-.4.4Z"/>
    <path d="M39.1,46.6c-.2,0-.4-.2-.4-.4v-3.2c0-.2.2-.4.4-.4s.4.2.4.4v3.2c0,.2-.2.4-.4.4Z"/>
    <path d="M48.3,45c-.2,0-.4-.2-.4-.4v-3.2c0-.2.2-.4.4-.4s.4.2.4.4v3.2c0,.2-.2.4-.4.4Z"/>
    <path d="M35.3,48.7c-.2,0-.4-.2-.4-.4v-3.2c0-.2.2-.4.4-.4s.4.2.4.4v3.2c0,.2-.2.4-.4.4Z"/>
    <path d="M61,49.7c-.2,0-.4-.2-.4-.4v-3.2c0-.2.2-.4.4-.4s.4.2.4.4v3.2c0,.2-.2.4-.4.4Z"/>
    <path d="M44,49.2c-.2,0-.4-.2-.4-.4v-3.2c0-.2.2-.4.4-.4s.4.2.4.4v3.2c0,.2-.2.4-.4.4Z"/>
    <path d="M52.2,51.1c-.2,0-.4-.2-.4-.4v-3.2c0-.2.2-.4.4-.4s.4.2.4.4v3.2c0,.2-.2.4-.4.4Z"/>
    <path d="M33,54.5c-.2,0-.4-.2-.4-.4v-3.2c0-.2.2-.4.4-.4s.4.2.4.4v3.2c0,.2-.2.4-.4.4Z"/>
    <path d="M40.7,54.8c-.2,0-.4-.2-.4-.4v-3.2c0-.2.2-.4.4-.4s.4.2.4.4v3.2c0,.2-.2.4-.4.4Z"/>
    <path d="M47.2,53.9c-.2,0-.4-.2-.4-.4v-3.2c0-.2.2-.4.4-.4s.4.2.4.4v3.2c0,.2-.2.4-.4.4Z"/>
    <path d="M56.6,54.9c-.2,0-.4-.2-.4-.4v-3.2c0-.2.2-.4.4-.4s.4.2.4.4v3.2c0,.2-.2.4-.4.4Z"/>
    <path d="M47.8,65.8c-.2,0-.4-.2-.4-.4v-3.2c0-.2.2-.4.4-.4s.4.2.4.4v3.2c0,.2-.2.4-.4.4Z"/>
    <path d="M50.3,59.1c-.2,0-.4-.2-.4-.4v-3.2c0-.2.2-.4.4-.4s.4.2.4.4v3.2c0,.2-.2.4-.4.4Z"/>
    <path d="M54.1,61.4c-.2,0-.4-.2-.4-.4v-3.2c0-.2.2-.4.4-.4s.4.2.4.4v3.2c0,.2-.2.4-.4.4Z"/>
    <path d="M37.1,59.1c-.2,0-.4-.2-.4-.4v-3.2c0-.2.2-.4.4-.4s.4.2.4.4v3.2c0,.2-.2.4-.4.4Z"/>
    <path d="M44.4,59.8c-.2,0-.4-.2-.4-.4v-3.2c0-.2.2-.4.4-.4s.4.2.4.4v3.2c0,.2-.2.4-.4.4Z"/>
    <path d="M41,64.5c-.2,0-.4-.2-.4-.4v-3.2c0-.2.2-.4.4-.4s.4.2.4.4v3.2c0,.2-.2.4-.4.4Z"/>
  </g>
  <g id="texto" transform-origin="center" style="animation: spin 10s linear infinite;">
    <style>
      @keyframes spin {
        from {
          transform: rotate(0deg);
        }
        to {
          transform: rotate(360deg);
        }
      }
    </style>
    <path d="M50.6,4.7l2.8.4v.6c0,0-3.6-.5-3.6-.5l.7-5.1,3.4.5v.6c0,0-2.8-.4-2.8-.4l-.2,1.6,2.4.3v.6c0,0-2.5-.3-2.5-.3l-.2,1.8h0Z"/>
    <path d="M58.5,1.6l.7.2-1.3,5-1.2-.3-.7-5.4h0l-1.2,4.9-.7-.2,1.3-5,1.2.3.7,5.5h0l1.3-4.9h0Z"/>
    <path d="M63.8,3.5l.7.3-3.3,4.2-1.2-.5.5-5.4.7.3-.5,5.3h0l3.2-4.2h0Z"/>
    <path d="M65.9,10.3l.2-1.3-2.1-1.1-1,1-.7-.4,3.9-3.8,1.2.6-.9,5.4-.7-.4h0ZM64.5,7.4l1.8.9.6-3.3h0l-2.4,2.4h0Z"/>
    <path d="M67.8,9.3l.6.4c-.4.7-.2,1.4.4,1.8.7.5,1.2.4,1.6,0,.4-.6-.1-1.1-.6-1.6-.6-.6-1.3-1.2-.7-2.1.5-.8,1.4-.8,2.4-.2.9.6,1.1,1.6.6,2.5l-.6-.4c.4-.6.2-1.2-.3-1.6s-1.1-.4-1.4,0c-.3.5.1.9.6,1.4.7.6,1.4,1.3.7,2.3-.6.8-1.5.9-2.6.1-1-.7-1.2-1.7-.7-2.7h0Z"/>
    <path d="M71.7,13.6l2.1,1.8-.4.4-2.7-2.3,3.4-3.9,2.6,2.2-.4.4-2.1-1.8-1.1,1.2,1.9,1.6-.4.4-1.9-1.6-1.2,1.4h0Z"/>
    <path d="M75.1,14.9l.5.5c-.5.6-.5,1.3,0,1.8.6.6,1.1.7,1.6.3.5-.5.1-1.1-.3-1.7-.5-.7-1-1.5-.2-2.2.7-.7,1.6-.5,2.4.4.8.8.8,1.8,0,2.6l-.5-.5c.5-.5.5-1.2,0-1.7s-1-.6-1.4-.2c-.4.4,0,.9.3,1.5.5.7,1.1,1.6.2,2.4-.7.7-1.7.5-2.6-.4-.8-.9-.8-1.9,0-2.8h0Z"/>
    <path d="M80.2,19.5c1.4-.9,2.7-.8,3.5.4.7,1,.5,2-.4,2.9l-.4-.6c.6-.6.7-1.3.3-2-.5-.8-1.5-.8-2.6-.1s-1.4,1.6-.8,2.4c.4.6,1.2.8,2,.4l.4.6c-1.1.6-2.2.3-2.8-.6-.8-1.2-.5-2.4.9-3.4h0Z"/>
    <path d="M83.1,23.8c1.5-.8,2.8-.5,3.4.8.7,1.3.2,2.5-1.3,3.2s-2.8.5-3.4-.8c-.7-1.3-.2-2.5,1.3-3.3h0ZM84.8,27.2c1.2-.6,1.6-1.5,1.1-2.3-.4-.9-1.4-1-2.5-.4-1.2.6-1.6,1.5-1.1,2.3.4.9,1.4,1,2.5.4Z"/>
    <path d="M89.2,31.2l.2.6-4.9,1.8-.4-1.2,4.1-3.6h0l-4.8,1.8-.2-.7,4.9-1.8.4,1.2-4.1,3.6h0l4.8-1.7h0Z"/>
    <path d="M86.5,33.9l.2.7c-.8.2-1.1.8-.9,1.6.2.8.6,1.2,1.2,1,.7-.2.6-.8.6-1.6,0-.9-.1-1.8.9-2,.9-.2,1.6.3,1.9,1.5.2,1.1-.2,1.9-1.3,2.2l-.2-.7c.7-.2,1-.8.9-1.4-.2-.7-.6-1-1.1-.9-.6.1-.6.8-.5,1.5,0,.9.1,1.9-1,2.2-1,.2-1.7-.4-2-1.6-.3-1.2.2-2.1,1.3-2.4h0Z"/>
    <path d="M86.4,39.8l.3,2.8h-.6c0,0-.4-3.4-.4-3.4l5.2-.6.4,3.4h-.6c0,0-.3-2.6-.3-2.6l-1.6.2.3,2.4h-.6c0,0-.3-2.4-.3-2.4,0,0-1.8.2-1.8.2Z"/>
    <path d="M86.3,47.4v-.8l2.1-1.3v-1.1s-2.2,0-2.2,0v-.7h5.2c0,0,0,1.8,0,1.8,0,1.2-.5,1.8-1.4,1.9-1,0-1.6-.7-1.6-1.8h0c0,.4-.2.8-.7,1.1l-1.5.9h0ZM89,44.1v1.2c0,.7.4,1,1,1,.6,0,.9-.4.9-1v-1.2s-1.9,0-1.9,0Z"/>
    <path d="M91,51.7v.7c0,0-5.1-2.1-5.1-2.1v-1.3c.1,0,5.4-1,5.4-1v.8c0,0-5.3.9-5.3.9h0l4.9,2h0Z"/>
    <path d="M85,55.6h1.4c0-.1.5-2.4.5-2.4l-1.2-.7.2-.7,4.7,2.8-.3,1.3-5.4.6s.2-.8.2-.8ZM87.4,53.5l-.4,2,3.3-.3h0l-2.9-1.7Z"/>
    <path d="M86.5,57.1l-.2.7c-.8-.2-1.4.1-1.6.9-.3.8,0,1.3.4,1.5.7.2,1-.4,1.3-1,.4-.8.8-1.6,1.9-1.3.9.3,1.2,1.2.8,2.3-.4,1.1-1.2,1.5-2.3,1.2l.2-.7c.7.2,1.3,0,1.5-.8s0-1.2-.4-1.3c-.6-.2-.9.4-1.2,1-.4.8-.9,1.7-2,1.3-.9-.3-1.2-1.2-.8-2.5.4-1.1,1.3-1.6,2.4-1.3h0Z"/>
    <path d="M83,64.8l.7.4-.4.7-.7-.4.4-.7Z"/>
    <path d="M79,69.6l-1.7,2.2-.5-.3,2.1-2.8,4.1,3.1-2.1,2.7-.5-.3,1.6-2.2-1.3-1-1.5,2-.5-.3,1.5-2-1.4-1.1h0Z"/>
    <path d="M77.8,78l-.5.5-3.7-3.6.9-.9,5.1,2.1h0l-3.7-3.5.5-.5,3.7,3.6-.9.9-5.1-2.1h0l3.7,3.5h0Z"/>
    <path d="M73.6,81.7l-.6.5-2.1-5,1-.8,4.5,3-.6.5-4.3-3h0l2.1,4.9h0Z"/>
    <path d="M66.6,80.3l1.1.9,2-1.3-.4-1.3.6-.4,1.4,5.3-1.1.7-4.3-3.4.7-.4h0ZM69.8,80.4l-1.7,1.1,2.6,2.2h0l-.9-3.2Z"/>
    <path d="M66.6,82.4l-.7.3c-.4-.7-1.1-.9-1.8-.5-.7.4-1,.9-.7,1.4.3.6,1,.4,1.7.2.8-.3,1.7-.6,2.2.4.4.9,0,1.7-1,2.2-1,.5-1.9.2-2.5-.7l.6-.3c.4.6,1,.8,1.6.5s.9-.8.6-1.3c-.3-.5-.9-.3-1.6-.1-.8.3-1.8.6-2.3-.5-.5-.9,0-1.8,1.1-2.3,1.1-.5,2.1-.3,2.7.7h0Z"/>
    <path d="M60.8,83.7l-2.6,1-.2-.5,3.3-1.2,1.8,4.9-3.2,1.2-.2-.5,2.5-.9-.6-1.5-2.3.9-.2-.6,2.3-.9-.6-1.7h0Z"/>
    <path d="M58,86l-.7.2c-.2-.8-.8-1.1-1.6-.9-.8.2-1.2.6-1,1.2.2.7.9.6,1.6.6.8,0,1.8-.2,2.1.9.2.9-.3,1.6-1.5,1.9-1.1.3-1.9-.2-2.3-1.3l.7-.2c.2.7.8,1,1.5.8s1-.6.9-1.1c-.2-.6-.8-.5-1.5-.5-.9,0-1.9.2-2.2-1-.2-1,.3-1.7,1.6-2,1.2-.3,2.1.2,2.4,1.3h0Z"/>
    <path d="M51.6,88.2c.1,1.7-.6,2.7-2,2.8-1.2,0-2-.6-2.3-1.8h.7c.2.8.8,1.2,1.5,1.2,1,0,1.5-.9,1.3-2.2s-.8-2-1.7-1.9c-.8,0-1.2.6-1.3,1.5h-.7c0-1.2.8-2,2-2.1,1.4-.1,2.4.8,2.5,2.5h0Z"/>
    <path d="M46.4,88.6c0,1.7-1,2.6-2.4,2.6-1.4,0-2.3-1.1-2.2-2.7,0-1.7,1-2.6,2.4-2.6,1.5,0,2.3,1.1,2.2,2.7ZM42.6,88.5c0,1.3.5,2.1,1.5,2.1,1,0,1.6-.7,1.6-2,0-1.3-.5-2.1-1.5-2.1-1,0-1.6.7-1.6,2Z"/>
    <path d="M37,90.4h-.7c0-.1.8-5.2.8-5.2l1.2.2,1.2,5.4h0l.8-5.1h.7c0,.1-.8,5.2-.8,5.2l-1.2-.2-1.2-5.4h0l-.8,5.1h0Z"/>
    <path d="M35.9,86.7l-.7-.2c.2-.8-.2-1.4-.9-1.6-.8-.2-1.3,0-1.5.5-.2.7.4,1,1.1,1.3.8.4,1.7.8,1.3,1.8-.3.9-1.1,1.2-2.2.9-1.1-.3-1.6-1.1-1.3-2.2l.7.2c-.2.7.2,1.3.8,1.5.7.2,1.2,0,1.3-.5.2-.6-.4-.8-1-1.2-.8-.4-1.7-.8-1.4-1.9.3-1,1.2-1.3,2.4-.9,1.2.3,1.7,1.2,1.5,2.4h0Z"/>
    <path d="M30.8,83.8l-2.6-1.1.2-.5,3.2,1.3-2,4.8-3.2-1.3.2-.5,2.5,1,.6-1.5-2.3-.9.2-.5,2.3.9.7-1.7h0Z"/>
    <path d="M24.3,80l.7.4v2.5s1,.5,1,.5l1-1.9.6.3-2.5,4.5-1.7-.9c-1-.6-1.4-1.4-.9-2.2.5-.9,1.3-1,2.3-.5h0c-.4-.2-.6-.6-.6-1.1v-1.7s0,0,0,0ZM25.8,83.9l-1.1-.6c-.6-.3-1.1-.2-1.4.3-.3.5-.1,1,.5,1.3l1.1.6s.9-1.6.9-1.6Z"/>
    <path d="M18.2,82l-.6-.4,4.3-3.3,1.1.8-1.7,5.1-.6-.5,1.8-5h0s-4.1,3.3-4.1,3.3Z"/>
    <path d="M17.7,74.8l-.6,1.2,1.8,1.6,1.2-.7.6.5-4.7,2.7-1-.9,2.2-5,.6.5h0ZM18.4,78l-1.5-1.3-1.4,3.1h0l2.9-1.7h0Z"/>
    <path d="M15.7,75.4l-.5-.5c.6-.6.6-1.3,0-1.8-.5-.6-1.1-.7-1.5-.3-.5.5-.1,1.1.3,1.7.5.7,1,1.5.2,2.2-.7.7-1.6.5-2.4-.4-.8-.8-.7-1.8,0-2.6l.5.5c-.5.5-.5,1.2,0,1.7s1,.6,1.4.3c.4-.4.1-.9-.3-1.5-.5-.8-1.1-1.6-.2-2.4.7-.7,1.7-.5,2.6.5.8.9.8,1.9,0,2.8h0Z"/>
    <path d="M10.7,68.5l-.6.4-.4-.7.6-.4.4.7Z"/>
    <path d="M8.4,62.8l-1.1-2.5.5-.2,1.4,3.2-4.7,2.1-1.4-3.2.5-.2,1.1,2.5,1.5-.7-1-2.2.5-.2,1,2.2,1.6-.7h0Z"/>
    <path d="M1.6,57.6l-.2-.7,5-1.5.4,1.2-4.3,3.4h0l4.9-1.5.2.7-5,1.5-.4-1.2,4.3-3.4h0l-4.9,1.5h0Z"/>
    <path d="M.5,52.1v-.7c-.1,0,5.3.6,5.3.6l.2,1.3-4.8,2.5v-.8c-.1,0,4.6-2.3,4.6-2.3h0s-5.3-.5-5.3-.5Z"/>
    <path d="M5.2,46.7l-1.3.5.2,2.4,1.3.3v.8c0,0-5.2-1.4-5.2-1.4v-1.3c0,0,5-2,5-2v.8c0,0,0,0,0,0ZM3.5,49.4v-2c-.1,0-3.3,1.2-3.3,1.2H.2l3.3.8h0Z"/>
    <path d="M3.4,45.7v-.7c.8,0,1.3-.5,1.3-1.3,0-.8-.3-1.3-.9-1.3-.7,0-.8.7-1,1.4-.2.8-.4,1.8-1.5,1.7-1,0-1.5-.8-1.4-2,0-1.1.7-1.8,1.9-1.8v.7c-.8,0-1.2.4-1.3,1.2s.3,1.2.8,1.2c.6,0,.7-.6.9-1.3.2-.9.4-1.9,1.6-1.8,1,0,1.5.8,1.5,2.1,0,1.2-.8,1.9-2,2h0Z"/>
    <path d="M5,40l.4-2.7h.6c0,0-.5,3.6-.5,3.6l-5.1-.8.5-3.4h.6c0,0-.4,2.8-.4,2.8l1.6.2.4-2.4h.6c0,0-.4,2.5-.4,2.5l1.8.3h0Z"/>
    <path d="M4.3,36.5l.2-.7c.8.2,1.4-.2,1.6-1,.2-.8,0-1.3-.6-1.5-.7-.2-1,.5-1.3,1.1-.3.8-.7,1.7-1.8,1.4-.9-.2-1.3-1.1-1-2.2.3-1.1,1.1-1.6,2.2-1.4l-.2.7c-.7-.2-1.3.2-1.5.9-.2.7,0,1.2.5,1.3.6.2.8-.4,1.1-1.1.4-.8.8-1.8,1.9-1.4,1,.3,1.3,1.2,1,2.4-.3,1.2-1.2,1.7-2.3,1.5h0Z"/>
    <path d="M6.2,28.1c-1.5-.8-2-2-1.3-3.2.5-1,1.5-1.4,2.7-1l-.3.6c-.8-.2-1.5,0-1.9.7-.4.9,0,1.7,1.2,2.3,1.2.6,2.1.4,2.5-.5s.1-1.4-.6-1.9l.3-.6c1,.7,1.4,1.8.8,2.8-.6,1.3-1.9,1.6-3.4.9h0Z"/>
    <path d="M8.6,23.4c-1.4-.9-1.7-2.2-.9-3.4.8-1.2,2.1-1.4,3.5-.4s1.7,2.2.9,3.4c-.8,1.2-2.1,1.4-3.5.4ZM10.8,20.2c-1.1-.7-2-.7-2.6.1-.5.8-.2,1.7.9,2.4,1.1.7,2,.7,2.6-.1.5-.8.2-1.7-.9-2.4h0Z"/>
    <path d="M12.1,14.5l.4-.5,3.9,3.4-.8.9-5.2-1.9h0l3.9,3.3-.5.5-3.9-3.4.8-1,5.2,1.9h0l-3.9-3.4h0Z"/>
    <path d="M15.8,15.5l.5-.5c.6.6,1.3.6,1.8,0,.6-.5.7-1.1.3-1.5-.5-.5-1.1-.1-1.7.3-.7.5-1.5,1-2.2.2-.6-.7-.5-1.6.4-2.4.8-.8,1.8-.7,2.6,0l-.5.5c-.5-.5-1.2-.5-1.7,0-.5.5-.6,1-.3,1.4.4.4.9.1,1.5-.3.8-.5,1.6-1.1,2.4-.2.7.7.5,1.7-.5,2.6-.9.8-1.9.8-2.8,0h0Z"/>
    <path d="M20.9,12.7l2.2-1.6.3.5-2.8,2.1-3-4.2,2.8-2,.3.5-2.2,1.6,1,1.3,2-1.4.3.5-2,1.4,1,1.4h0Z"/>
    <path d="M27.6,9.2l-.7.4-2.1-1.3-1,.6,1.1,1.9-.6.4-2.6-4.5,1.7-.9c1-.6,1.9-.4,2.3.3.5.8.2,1.7-.8,2.2h0c.4-.2.9-.2,1.3,0,0,0,1.5.9,1.5.9ZM23.5,8.4l1.1-.6c.6-.3.7-.8.4-1.3-.3-.5-.8-.6-1.4-.3l-1.1.6.9,1.6Z"/>
    <path d="M29.1,2.9l.7-.3.6,5.4-1.2.5-3.5-4.2.7-.3,3.3,4.1h0l-.7-5.3h0Z"/>
    <path d="M35.4,6.2l-.8-1.1-2.3.7v1.4l-.7.2V1.9c.1,0,1.4-.4,1.4-.4l3.2,4.5-.8.2h0ZM32.4,5.2l1.9-.6-1.9-2.8h0v3.4Z"/>
    <path d="M36,4.2h.7c.2.6.8,1,1.5.9.8-.2,1.2-.6,1.1-1.1-.1-.7-.8-.7-1.6-.7-.9,0-1.8,0-2-1-.2-1,.4-1.6,1.6-1.8,1.1-.2,1.9.3,2.2,1.4h-.7c-.2-.6-.7-.9-1.4-.8s-1.1.5-1,1c.1.6.8.6,1.5.6.9,0,1.9,0,2.1,1.1.2,1-.5,1.7-1.7,1.9-1.2.2-2.1-.3-2.3-1.5h0Z"/>
    <path d="M44.5,3.5v-.8s.8,0,.8,0v.8s-.8,0-.8,0Z"/>
  </g>
</svg>