<?xml version="1.0" encoding="UTF-8"?>
<svg id="Capa_1" xmlns="http://www.w3.org/2000/svg" version="1.1" viewBox="0 0 91.4 91.4">
  <!-- Generator: Adobe Illustrator 29.1.0, SVG Export Plug-In . SVG Version: 2.1.0 Build 142)  -->
  <g id="imagen">
    <path d="M41.1,50.2c-1.8,0-3.3-1.5-3.3-3.3s1.5-3.3,3.3-3.3,3.3,1.5,3.3,3.3-1.5,3.3-3.3,3.3ZM41.1,44.2c-1.5,0-2.7,1.2-2.7,2.7s1.2,2.7,2.7,2.7,2.7-1.2,2.7-2.7-1.2-2.7-2.7-2.7Z"/>
    <path d="M47.1,50.2c-1.8,0-3.3-1.5-3.3-3.3s1.5-3.3,3.3-3.3,3.3,1.5,3.3,3.3-1.5,3.3-3.3,3.3ZM47.1,44.2c-1.5,0-2.7,1.2-2.7,2.7s1.2,2.7,2.7,2.7,2.7-1.2,2.7-2.7-1.2-2.7-2.7-2.7Z"/>
    <path d="M53.1,50.2c-1.8,0-3.3-1.5-3.3-3.3s1.5-3.3,3.3-3.3,3.3,1.5,3.3,3.3-1.5,3.3-3.3,3.3ZM53.1,44.2c-1.5,0-2.7,1.2-2.7,2.7s1.2,2.7,2.7,2.7,2.7-1.2,2.7-2.7-1.2-2.7-2.7-2.7Z"/>
    <path d="M38.1,55.4c-1.8,0-3.3-1.5-3.3-3.3s1.5-3.3,3.3-3.3,3.3,1.5,3.3,3.3-1.5,3.3-3.3,3.3ZM38.1,49.4c-1.5,0-2.7,1.2-2.7,2.7s1.2,2.7,2.7,2.7,2.7-1.2,2.7-2.7-1.2-2.7-2.7-2.7Z"/>
    <path d="M44.1,55.4c-1.8,0-3.3-1.5-3.3-3.3s1.5-3.3,3.3-3.3,3.3,1.5,3.3,3.3-1.5,3.3-3.3,3.3ZM44.1,49.4c-1.5,0-2.7,1.2-2.7,2.7s1.2,2.7,2.7,2.7,2.7-1.2,2.7-2.7-1.2-2.7-2.7-2.7Z"/>
    <path d="M50.1,55.4c-1.8,0-3.3-1.5-3.3-3.3s1.5-3.3,3.3-3.3,3.3,1.5,3.3,3.3-1.5,3.3-3.3,3.3ZM50.1,49.4c-1.5,0-2.7,1.2-2.7,2.7s1.2,2.7,2.7,2.7,2.7-1.2,2.7-2.7-1.2-2.7-2.7-2.7Z"/>
    <path d="M56.1,55.4c-1.8,0-3.3-1.5-3.3-3.3s1.5-3.3,3.3-3.3,3.3,1.5,3.3,3.3-1.5,3.3-3.3,3.3ZM56.1,49.4c-1.5,0-2.7,1.2-2.7,2.7s1.2,2.7,2.7,2.7,2.7-1.2,2.7-2.7-1.2-2.7-2.7-2.7Z"/>
    <path d="M41.1,60.6c-1.8,0-3.3-1.5-3.3-3.3s1.5-3.3,3.3-3.3,3.3,1.5,3.3,3.3-1.5,3.3-3.3,3.3ZM41.1,54.6c-1.5,0-2.7,1.2-2.7,2.7s1.2,2.7,2.7,2.7,2.7-1.2,2.7-2.7-1.2-2.7-2.7-2.7Z"/>
    <path d="M47.1,60.6c-1.8,0-3.3-1.5-3.3-3.3s1.5-3.3,3.3-3.3,3.3,1.5,3.3,3.3-1.5,3.3-3.3,3.3ZM47.1,54.6c-1.5,0-2.7,1.2-2.7,2.7s1.2,2.7,2.7,2.7,2.7-1.2,2.7-2.7-1.2-2.7-2.7-2.7Z"/>
    <path d="M53.1,60.6c-1.8,0-3.3-1.5-3.3-3.3s1.5-3.3,3.3-3.3,3.3,1.5,3.3,3.3-1.5,3.3-3.3,3.3ZM53.1,54.6c-1.5,0-2.7,1.2-2.7,2.7s1.2,2.7,2.7,2.7,2.7-1.2,2.7-2.7-1.2-2.7-2.7-2.7Z"/>
    <path d="M44.1,65.8c-1.8,0-3.3-1.5-3.3-3.3s1.5-3.3,3.3-3.3,3.3,1.5,3.3,3.3-1.5,3.3-3.3,3.3ZM44.1,59.8c-1.5,0-2.7,1.2-2.7,2.7s1.2,2.7,2.7,2.7,2.7-1.2,2.7-2.7-1.2-2.7-2.7-2.7Z"/>
    <path d="M50.1,65.8c-1.8,0-3.3-1.5-3.3-3.3s1.5-3.3,3.3-3.3,3.3,1.5,3.3,3.3-1.5,3.3-3.3,3.3ZM50.1,59.8c-1.5,0-2.7,1.2-2.7,2.7s1.2,2.7,2.7,2.7,2.7-1.2,2.7-2.7-1.2-2.7-2.7-2.7Z"/>
    <path d="M47.1,71.1c-1.8,0-3.3-1.5-3.3-3.3s1.5-3.3,3.3-3.3,3.3,1.5,3.3,3.3-1.5,3.3-3.3,3.3ZM47.1,65.1c-1.5,0-2.7,1.2-2.7,2.7s1.2,2.7,2.7,2.7,2.7-1.2,2.7-2.7-1.2-2.7-2.7-2.7Z"/>
    <path d="M45.7,44.5c-.1,0-.2,0-.3-.2-.7-1.5-1.1-4.9-.5-8.4.7-4.2,2.6-7.4,5.3-9,3.6-2.2,5.9-1.9,7.3-1.1,3.5-1.1,7.9,0,8.2,0,.2,0,.3.2.2.4,0,.2-.2.3-.4.2,0,0-4-1-7.3-.2,1.6,1.4,2.1,3.8,1.7,5.4-.3,1.2-1.2,2-2.5,2.3-1.3.3-2.6,0-3.4-.9-.8-1-.9-2.4-.3-4.1.6-1.4,1.6-2.4,2.8-2.9-1.3-.5-3.2-.4-6.1,1.4-5.7,3.5-6,13.5-4.5,16.6,0,.2,0,.4-.2.4,0,0,0,0-.1,0h0ZM57.5,26.5c-1.3.5-2.5,1.3-3,2.8-.6,1.4-.5,2.6.2,3.4.6.7,1.7,1,2.7.7,1-.2,1.8-.9,2-1.9.4-1.5-.2-3.8-1.7-4.9,0,0,0,0-.1,0h0Z"/>
    <path d="M38.9,36.7c-3.5,0-5.9-2.3-6-2.4-.1-.1-.1-.3,0-.5s.3-.1.5,0,2.3,2.2,5.6,2.2c2.4,0,4.7-1.2,6.8-3.4.1-.1.3-.1.5,0,.1.1.1.3,0,.5-2.3,2.4-4.8,3.6-7.3,3.6h-.1Z"/>
    <path d="M32.7,45.5c0,0-.1,0-.2,0-1.4-.9-1.2-2.7-1-3.7-4.2,1.4-5.9.1-6,0,0,0-.1-.2-.1-.3.2-3,1.9-4.6,2.7-5.2-4-2.9-4.8-7.7-4.8-7.9,0-.1,0-.3.2-.4,4.3-1.9,6.9-.8,7.8-.2l.9-3.3c0,0,0-.2.2-.2s.2,0,.3,0c3.5,1.3,4.3,4.1,4.4,5.1,2.1-.6,2.9-1.9,2.9-1.9,0-.1.2-.2.3-.2.1,0,.2.1.3.3.6,3.4.2,5.9-1.1,7.4-.8.9-1.9,1.2-2.5,1.3.9,2.1,1,4,.2,5.6-1.2,2.7-4.4,3.5-4.5,3.6,0,0,0,0,0,0h0ZM32.1,40.9c0,0,.2,0,.2,0,0,0,.1.2,0,.4,0,0-1,2.4.4,3.5.6-.2,3-1.1,3.9-3.2.7-1.5.6-3.4-.4-5.5,0-.1,0-.2,0-.3s.2-.2.3-.2,1.4,0,2.5-1.1c1.1-1.2,1.4-3.2,1.1-6-.5.5-1.5,1.3-3.2,1.6,0,0-.2,0-.3,0s-.1-.1-.1-.2c0-.1-.2-3.3-3.7-4.8l-.9,3.4c0,.1-.1.2-.2.2-.1,0-.2,0-.3,0-.1,0-2.4-2.1-7.3,0,.2,1,1.3,5.2,4.9,7.5.1,0,.2.2.1.3,0,.1,0,.2-.2.3-.1,0-2.5,1.4-2.8,4.7.5.2,2.2.8,5.8-.5,0,0,0,0,.1,0h0Z"/>
  </g>
  <g id="texto" transform-origin="center" style="animation: spin 10s linear infinite;">
    <style>
      @keyframes spin {
        from {
          transform: rotate(0deg);
        }
        to {
          transform: rotate(360deg);
        }
      }
    </style>
    <path d="M49.7,2.4c1.1,0,1.6.7,1.6,1.6,0,.9-.8,1.4-1.9,1.3l-2.1-.2.4-5.2,2,.2c.9,0,1.4.6,1.3,1.3,0,.7-.6,1-1.5.9h0s0,0,0,0ZM49.4,4.8c.6,0,1-.3,1-.8,0-.6-.3-.9-.9-1h-1.4c0-.1-.2,1.7-.2,1.7h1.4c0,.1,0,.1,0,.1ZM49.4.7h-1.1c0,0-.1,1.6-.1,1.6h1.1c.6.1.9-.1,1-.7,0-.5-.3-.9-.8-.9h0Z"/>
    <path d="M52.1,3c.3-1.6,1.4-2.4,2.8-2.1,1.4.3,2,1.4,1.7,3.1-.3,1.6-1.4,2.4-2.8,2.1-1.4-.3-2.1-1.4-1.7-3.1h0ZM55.9,3.8c.3-1.3-.2-2.1-1.1-2.3-1-.2-1.7.4-1.9,1.7-.3,1.3.2,2.1,1.1,2.3,1,.2,1.7-.4,1.9-1.7h0Z"/>
    <path d="M61.6,2.8l-.2.5-1.5-.5-1.4,4.4-.7-.2,1.4-4.4-1.5-.5.2-.5,3.7,1.2h0Z"/>
    <path d="M61.5,7.7l2.5,1.1-.2.5-3.2-1.4,2.1-4.7,3.2,1.4-.2.5-2.5-1.1-.7,1.5,2.2,1-.2.5-2.2-1-.7,1.6h0Z"/>
    <path d="M65.4,9.6l2,1.2-.3.5-2.7-1.5,2.6-4.5.6.4-2.2,4h0Z"/>
    <path d="M68.7,11.6l1.9,1.3-.3.5-2.5-1.8,3-4.3.6.4-2.6,3.8h0Z"/>
    <path d="M73.3,16l.5-1.2-1.8-1.6-1.2.7-.6-.5,4.7-2.8,1,.9-2.1,5-.6-.5h0ZM72.6,12.9l1.5,1.3,1.3-3.1h0s-2.9,1.8-2.9,1.8Z"/>
    <path d="M75.4,15.5l.5.5c-.5.6-.6,1.3,0,1.8.6.6,1.1.7,1.6.3.5-.5.1-1.1-.3-1.7-.5-.7-1-1.5-.2-2.2.7-.7,1.6-.5,2.4.4.8.8.8,1.8,0,2.6l-.5-.5c.5-.5.5-1.2,0-1.7-.5-.5-1-.6-1.4-.3-.4.4,0,.9.3,1.5.5.7,1.1,1.6.2,2.4-.7.7-1.7.5-2.6-.4-.8-.9-.8-1.9,0-2.8h0Z"/>
    <path d="M83.6,20.2c.6.9.5,1.8-.3,2.4s-1.7.3-2.3-.6l-.6-.9-1.7,1.1-.4-.6,4.3-2.9,1,1.5h0ZM81.5,21.7c.3.5.9.6,1.4.3s.6-.9.3-1.4l-.6-.9-1.7,1.1.6.9h0Z"/>
    <path d="M82.2,28l1-1-1.1-2.1-1.3.3-.3-.7,5.4-.9.6,1.1-3.8,4-.4-.7h0ZM82.6,24.8l.9,1.8,2.4-2.4h0l-3.3.6h0Z"/>
    <path d="M84.2,32.8l-.3-.8,1.6-1.9-.4-1-2,.8-.3-.7,4.8-1.9.7,1.8c.4,1.1.2,1.9-.7,2.2-.9.4-1.7,0-2.1-1.1h0c.2.4,0,.9-.2,1.3l-1.1,1.4ZM85.6,28.9l.4,1.1c.2.6.7.8,1.3.6.5-.2.7-.7.5-1.3l-.4-1.1s-1.7.7-1.7.7Z"/>
    <path d="M85.3,36.8l1.2-.7-.6-2.3h-1.4c0,0-.2-.8-.2-.8l5.4.3.3,1.2-4.6,3-.2-.8h0ZM86.4,33.8l.5,1.9,2.8-1.8h0s-3.4-.2-3.4-.1Z"/>
    <path d="M91.3,42v.8c0,0-5.2-1-5.2-1l-.2-1.3,5-2.1v.8c0,0-4.8,2-4.8,2h0l5.2.9h0Z"/>
    <path d="M86.2,44l5.2-.2v.7s-5.2.2-5.2.2v-.7Z"/>
    <path d="M91.3,49.4v.7s-5.2-.3-5.2-.3v-1.2c0,0,5.3-1.7,5.3-1.7h0l-5.1-.2v-.7s5.2.3,5.2.3v1.3c0,0-5.3,1.7-5.3,1.7h0s5.1.3,5.1.3Z"/>
    <path d="M88.5,51.1c1.7.3,2.5,1.3,2.2,2.7s-1.4,2.1-3,1.8-2.5-1.3-2.2-2.7c.3-1.4,1.4-2.1,3-1.8ZM87.8,54.9c1.3.2,2.1-.2,2.3-1.2.2-1-.5-1.7-1.8-1.9s-2.1.2-2.3,1.2c-.2,1,.5,1.7,1.8,1.9Z"/>
    <path d="M86.8,56.2l-.2.7c-.8-.2-1.4.2-1.6.9-.2.8,0,1.3.5,1.5.7.2,1-.4,1.3-1.1.4-.8.8-1.6,1.8-1.3.9.3,1.2,1.1.9,2.3-.3,1.1-1.2,1.5-2.3,1.3l.2-.7c.7.2,1.3-.1,1.5-.8.2-.7,0-1.2-.5-1.3-.6-.2-.9.4-1.2,1-.4.8-.8,1.7-2,1.4-.9-.3-1.3-1.2-.9-2.4.3-1.2,1.2-1.7,2.4-1.4h0Z"/>
    <path d="M83.6,63.8l.7.3-.4.7-.7-.3s.4-.7.4-.7Z"/>
    <path d="M81.1,70.9c-.6.9-1.4,1.1-2.1.6-.8-.5-.8-1.4-.2-2.3l1.2-1.7,4.2,3-1.2,1.7c-.5.7-1.2.9-1.8.5-.6-.4-.6-1,0-1.8h0ZM79.2,69.5c-.3.5-.3,1,.2,1.3.5.3.9.2,1.3-.3l.8-1.2-1.5-1-.8,1.2ZM82.7,71.6l.6-.9-1.4-1-.6.9c-.3.5-.3.9.2,1.2.4.3.9.2,1.2-.3h0Z"/>
    <path d="M79.3,72.8c1.2,1.1,1.4,2.4.4,3.5-1,1.1-2.3,1.1-3.5,0-1.2-1.1-1.4-2.4-.4-3.5,1-1.1,2.3-1.1,3.5,0h0ZM76.7,75.6c1,.9,1.9.9,2.6.2.7-.7.5-1.7-.5-2.5-1-.9-1.9-.9-2.6-.2-.7.7-.5,1.7.5,2.5Z"/>
    <path d="M74.8,81l-.4-.4,1.2-1.1-3.1-3.4.6-.5,3.1,3.4,1.2-1.1.4.4-2.9,2.6h0Z"/>
    <path d="M70.5,78.4l-2.2,1.6-.3-.5,2.8-2.1,3.1,4.2-2.8,2-.3-.5,2.2-1.6-1-1.3-2,1.4-.3-.5,2-1.4-1.1-1.4h0Z"/>
    <path d="M66.9,80.9l-2,1.2-.3-.5,2.7-1.6,2.6,4.5-.6.4-2.3-3.9h0Z"/>
    <path d="M63.6,82.7l-2.1,1-.2-.6,2.8-1.3,2.2,4.7-.7.3-1.9-4.2h0Z"/>
    <path d="M57.4,84.5l.8,1.1,2.2-.8v-1.4s.7-.2.7-.2v5.5s-1.2.4-1.2.4l-3.3-4.3.8-.3ZM60.5,85.5l-1.9.7,2,2.7h0v-3.4c0,0,0,0,0,0Z"/>
    <path d="M56.9,86.6l-.7.2c-.2-.8-.8-1.1-1.6-.9-.8.2-1.2.6-1.1,1.2.2.7.8.7,1.6.6.9,0,1.8-.1,2,.9.2.9-.4,1.6-1.5,1.9-1.1.2-1.9-.2-2.2-1.3l.7-.2c.2.7.7,1,1.4.9s1-.6.9-1.1c-.1-.6-.8-.6-1.5-.5-.9,0-1.9.1-2.2-1-.2-1,.4-1.7,1.7-2,1.2-.3,2.1.2,2.4,1.4h0Z"/>
    <path d="M48.6,91.3c-1.1,0-1.8-.5-1.9-1.5s.6-1.6,1.7-1.7h1.1c0,0-.1-2.1-.1-2.1h.7c0,0,.3,5.1.3,5.1h-1.8c0,.1,0,.1,0,.1ZM48.4,88.7c-.6,0-1,.4-.9,1.1s.4,1,1.1.9h1.1c0,0-.1-2.1-.1-2.1h-1.1Z"/>
    <path d="M42.6,86.1l.4,1.3h2.4c0,0,.5-1.2.5-1.2h.8s-1.9,5.1-1.9,5.1h-1.3c0,0-1.5-5.3-1.5-5.3h.8s0,0,0,0ZM45.2,88.1h-2c0,0,.9,3.2.9,3.2h0l1.1-3.2h0Z"/>
    <path d="M37.4,85.4h.8c0,.1.9,2.5.9,2.5l1.1.2.3-2.1h.7c0,.1-.8,5.2-.8,5.2l-1.9-.3c-1.1-.2-1.7-.8-1.6-1.7.2-1,.9-1.4,2-1.3h0c-.4,0-.8-.4-1-.9l-.6-1.6h0ZM40.1,88.6l-1.2-.2c-.7,0-1.1.2-1.2.8,0,.6.2,1,.9,1.1l1.2.2.3-1.8h0Z"/>
    <path d="M33.5,84.4v1.4s2.3.6,2.3.6l.7-1.2.7.2-3,4.5-1.2-.3-.3-5.4.8.2h0ZM35.5,86.9l-1.9-.5v3.4h.1l1.8-2.8h0Z"/>
    <path d="M25.9,86.9l-.7-.3,3.5-4.1,1.2.5-.7,5.4-.7-.3.7-5.3h0l-3.4,4.1h0Z"/>
    <path d="M26.8,81.6l-2.5,4.6-.6-.3,2.5-4.6.6.3Z"/>
    <path d="M19.5,83.2l-.6-.4,2.8-4.3,1,.7-1.1,5.4h0l2.8-4.3.6.4-2.9,4.3-1-.7,1.1-5.4h0l-2.8,4.3h0Z"/>
    <path d="M19.4,79.9c-1.1,1.3-2.4,1.5-3.5.5s-1.1-2.2,0-3.5c1.1-1.3,2.4-1.5,3.5-.5,1.1.9,1.1,2.2,0,3.5h0ZM16.5,77.5c-.8,1-.9,1.9-.2,2.6.8.6,1.7.4,2.5-.6s.9-1.9.1-2.6c-.7-.6-1.7-.4-2.5.6h0Z"/>
    <path d="M15.9,75.8l-.5-.5c.5-.6.6-1.3,0-1.8-.6-.6-1.1-.7-1.6-.3-.5.5-.1,1.1.3,1.7.5.7,1,1.5.2,2.2-.7.7-1.6.5-2.4-.4-.8-.8-.8-1.8,0-2.6l.5.5c-.5.5-.5,1.2,0,1.7.5.5,1,.6,1.4.3.4-.4,0-.9-.3-1.5-.5-.8-1.1-1.6-.2-2.4.7-.7,1.7-.5,2.6.4.8.9.8,1.9,0,2.8h0Z"/>
    <path d="M11,69.3l-.6.4-.5-.7.6-.4.5.7h0Z"/>
    <path d="M6.1,63.5c-.4-1-.2-1.8.6-2.1.8-.4,1.6,0,2.1,1l.9,1.9-4.7,2.2-.9-1.9c-.4-.8-.2-1.5.5-1.8.6-.3,1.2,0,1.6.8h0,0c0,0,0,0,0,0ZM4.7,64.6l.5,1,1.5-.7-.5-1c-.2-.5-.7-.7-1.1-.5-.5.2-.6.7-.4,1.2ZM8.2,62.6c-.3-.5-.7-.7-1.2-.5s-.7.7-.4,1.3l.6,1.3,1.6-.8-.6-1.3h0Z"/>
    <path d="M5.3,61.1c-1.6.5-2.8,0-3.2-1.4-.4-1.4.2-2.5,1.8-3,1.6-.5,2.8,0,3.2,1.4.4,1.4-.2,2.5-1.8,3ZM4.2,57.5c-1.2.4-1.8,1.2-1.5,2.1.3.9,1.2,1.2,2.4.8,1.2-.4,1.8-1.2,1.5-2.1-.3-.9-1.2-1.2-2.4-.8h0Z"/>
    <path d="M.5,53h.6c0-.1.3,1.4.3,1.4l4.5-.9.2.7-4.5.9.3,1.5h-.6c0,.1-.8-3.7-.8-3.7h0Z"/>
    <path d="M4.9,50.7l-.3-2.8h.6c0,0,.3,3.4.3,3.4l-5.2.5-.3-3.4h.6c0,0,.3,2.6.3,2.6l1.6-.2-.2-2.4h.6c0,0,.2,2.4.2,2.4,0,0,1.8-.2,1.8-.2Z"/>
    <path d="M4.6,46.3v-2.3s.6,0,.6,0v3.1c0,0-5.1,0-5.1,0v-.7h4.6c0,0,0,0,0,0Z"/>
    <path d="M4.7,42.5l.2-2.3h.6s-.3,3.1-.3,3.1l-5.2-.5v-.7c0,0,4.6.4,4.6.4Z"/>
    <path d="M6.2,36.2l-1.4.2-.5,2.3,1.2.7-.2.7-4.8-2.7.2-1.3,5.4-.7-.2.8h0ZM3.9,38.4l.4-2-3.3.3h0s3,1.6,3,1.6Z"/>
    <path d="M4.8,34.8l.2-.7c.8.2,1.4-.1,1.6-.9.2-.8,0-1.3-.5-1.5-.7-.2-1,.4-1.3,1.1-.4.8-.8,1.6-1.8,1.3-.9-.3-1.2-1.1-.8-2.3.3-1.1,1.2-1.5,2.3-1.3l-.2.7c-.7-.2-1.3.1-1.5.8-.2.7,0,1.2.5,1.3.6.2.9-.4,1.2-1,.4-.8.9-1.7,2-1.4.9.3,1.3,1.2.9,2.4-.4,1.2-1.2,1.7-2.4,1.4h0Z"/>
    <path d="M4.8,25.2c.5-1,1.3-1.3,2.2-.9s1.1,1.3.6,2.3l-.5,1,1.8.9-.3.7-4.6-2.3.8-1.6h0ZM7.2,26.4c.3-.6.1-1.1-.4-1.4s-1.1-.1-1.3.5l-.5,1,1.8.9.5-1h0Z"/>
    <path d="M12.3,22.7l-1.3-.4-1.3,2,.9,1-.4.6-3.4-4.2.7-1.1,5.3,1.3s-.4.7-.4.7ZM9.3,23.9l1.1-1.7-3.2-.9h0l2.2,2.6h0Z"/>
    <path d="M15.6,18.5l-.5.6-2.5-.4-.7.9,1.7,1.4-.5.6-4-3.3,1.2-1.5c.7-.9,1.6-1.1,2.3-.5.8.6.8,1.5,0,2.4h0c.3-.3.7-.5,1.2-.4l1.7.3h0ZM11.4,19.3l.8-1c.4-.5.4-1,0-1.4-.4-.4-.9-.3-1.4.2l-.8,1,1.4,1.2h0Z"/>
    <path d="M18.5,15.6l-1.2-.6-1.7,1.7.6,1.2-.5.5-2.4-4.9.9-.9,4.9,2.5-.6.6h0ZM15.3,16.1l1.4-1.4-3-1.6h0l1.5,3h0Z"/>
    <path d="M20,7.9l.6-.4,1.8,5.1-1.1.8-4.3-3.3.6-.5,4.2,3.3h0l-1.8-5h0Z"/>
    <path d="M24.3,11.3l-2.7-4.4.6-.4,2.7,4.4-.6.4Z"/>
    <path d="M26.5,4.2l.6-.3,2.3,4.6-1.1.6-4.1-3.7h0l2.3,4.6-.6.3-2.3-4.6,1.1-.6,4.1,3.7h0s-2.3-4.6-2.3-4.6Z"/>
    <path d="M29.3,5.7c-.5-1.6,0-2.8,1.3-3.3,1.4-.5,2.5.2,3,1.8.5,1.6,0,2.8-1.3,3.3-1.4.5-2.5-.2-3-1.8ZM33,4.5c-.4-1.2-1.2-1.8-2.1-1.4-.9.3-1.2,1.2-.8,2.4.4,1.2,1.2,1.8,2.1,1.4.9-.3,1.2-1.2.8-2.5h0Z"/>
    <path d="M34.6,4.8l.7-.2c.2.8.8,1.1,1.6.9.8-.2,1.2-.6,1.1-1.2-.2-.7-.8-.7-1.6-.6-.9,0-1.8.1-2-1-.2-.9.4-1.6,1.5-1.9,1.1-.2,1.9.3,2.2,1.3l-.7.2c-.2-.7-.7-1-1.4-.9s-1,.5-.9,1.1c.1.6.8.6,1.5.5.9,0,1.9-.1,2.2,1,.2,1-.4,1.7-1.7,2-1.2.3-2.1-.2-2.4-1.4h0Z"/>
    <path d="M42.7,3.8v-.8s.8,0,.8,0v.8s-.8,0-.8,0Z"/>
  </g>
</svg>