<?xml version="1.0" encoding="UTF-8"?>
<svg id="Capa_1" xmlns="http://www.w3.org/2000/svg" version="1.1" viewBox="0 0 91.5 91.4">
  <!-- Generator: Adobe Illustrator 29.1.0, SVG Export Plug-In . SVG Version: 2.1.0 Build 142)  -->
  <g id="imagen">
    <path d="M58.1,65.8h-24.7c-.1,0-.2,0-.3-.2-4-5.9-6.1-12.8-6.1-19.9s2.1-14.1,6.2-20c0,0,.2-.1.3-.1h24.6c.1,0,.2,0,.3.1,4,5.9,6.2,12.8,6.2,20s-2.1,14-6.1,19.9c0,0-.2.2-.3.2h0ZM33.6,65.2h24.4c3.9-5.7,5.9-12.4,5.9-19.4s-2.1-13.7-6-19.5h-24.2c-3.9,5.7-6,12.5-6,19.5s2,13.6,5.9,19.4h0Z"/>
    <path d="M38.1,65.8c-.1,0-.2,0-.3-.2-2.6-6.1-4-12.9-4-19.8s1.4-13.9,4-20c0-.2.3-.2.4-.2.2,0,.2.3.2.4-2.6,6-4,12.8-4,19.7s1.3,13.6,3.9,19.5c0,.2,0,.4-.2.4,0,0,0,0-.1,0h0Z"/>
    <path d="M43,65.8c-.2,0-.3-.1-.3-.3-.8-6.4-1.3-13-1.3-19.7s.4-13.5,1.3-19.9c0-.2.2-.3.4-.3.2,0,.3.2.3.4-.9,6.4-1.3,13.1-1.3,19.9s.4,13.2,1.3,19.6c0,.2,0,.3-.3.4,0,0,0,0,0,0Z"/>
    <path d="M53.4,65.8s0,0-.1,0c-.2,0-.2-.3-.2-.4,2.6-6,3.9-12.8,3.9-19.5s-1.4-13.7-4-19.7c0-.2,0-.4.2-.4.2,0,.4,0,.4.2,2.6,6.1,4,13,4,20s-1.4,13.7-4,19.8c0,.1-.2.2-.3.2h0Z"/>
    <path d="M48.5,65.8h0c-.2,0-.3-.2-.3-.4.8-6.3,1.3-12.9,1.3-19.6s-.4-13.4-1.3-19.9c0-.2,0-.4.3-.4.2,0,.3.1.4.3.9,6.5,1.3,13.2,1.3,19.9s-.4,13.3-1.3,19.7c0,.2-.2.3-.3.3Z"/>
    <path d="M63.9,33H27.3c-.2,0-.3-.2-.3-.3s.1-.3.3-.3h36.6c.2,0,.3.2.3.3s-.2.3-.3.3Z"/>
    <path d="M63.9,59.1H27.3c-.2,0-.3-.2-.3-.3s.1-.3.3-.3h36.6c.2,0,.3.2.3.3s-.2.3-.3.3Z"/>
  </g>
  <g id="texto" transform-origin="center" style="animation: spin 10s linear infinite;">
    <style>
      @keyframes spin {
        from {
          transform: rotate(0deg);
        }
        to {
          transform: rotate(360deg);
        }
      }
    </style>
    <path d="M50,2.5c1.1,0,1.7.7,1.6,1.6,0,.9-.8,1.4-1.9,1.3l-2.1-.2L48,0l2.1.2c.9,0,1.4.6,1.3,1.3,0,.7-.6,1-1.5,1h0s0,0,.1,0ZM49.8,4.8c.6,0,1-.3,1.1-.8,0-.6-.3-.9-.9-1h-1.4c0-.1-.2,1.7-.2,1.7h1.4ZM49.8.7h-1.1c0,0-.2,1.6-.2,1.6h1.1c.6.1.9-.1,1-.7s-.3-.9-.8-.9Z"/>
    <path d="M52.5,3c.3-1.6,1.4-2.4,2.8-2.1,1.4.3,2.1,1.5,1.7,3.1-.4,1.7-1.4,2.4-2.8,2.1-1.4-.3-2.1-1.4-1.7-3.1h0ZM56.3,3.8c.3-1.3-.1-2.2-1.1-2.3-1-.2-1.7.4-2,1.7-.3,1.3.1,2.2,1.1,2.4,1,.2,1.7-.4,2-1.7h0Z"/>
    <path d="M62,2.9l-.2.6-1.5-.5-1.5,4.4-.7-.2,1.5-4.4-1.5-.5.2-.6,3.7,1.2h0Z"/>
    <path d="M61.9,7.9l2.6,1.1-.2.5-3.2-1.5,2.2-4.8,3.1,1.4-.2.5-2.5-1.1-.7,1.5,2.3,1-.2.5-2.2-1-.7,1.6h0Z"/>
    <path d="M65.8,9.8l2,1.2-.3.5-2.7-1.6,2.6-4.5.6.4-2.3,4h0Z"/>
    <path d="M69.1,11.8l1.9,1.4-.3.5-2.5-1.8,3-4.3.6.4-2.7,3.8h0Z"/>
    <path d="M73.7,16.4l.6-1.3-1.8-1.6-1.2.7-.6-.5,4.8-2.8,1,.9-2.2,5.1-.6-.5h0ZM73,13.2l1.5,1.3,1.4-3.1h0s-2.9,1.8-2.9,1.8Z"/>
    <path d="M75.8,15.8l.5.5c-.6.6-.6,1.3,0,1.9.6.6,1.1.7,1.6.3.5-.5.2-1.1-.3-1.7-.5-.7-1-1.5-.2-2.3.7-.6,1.6-.5,2.4.4.8.8.7,1.8,0,2.6l-.5-.5c.5-.5.5-1.2,0-1.7s-1-.6-1.4-.3c-.5.4,0,1,.3,1.5.5.8,1.1,1.6.2,2.4-.7.7-1.7.5-2.6-.5-.8-.9-.8-1.9,0-2.8h0Z"/>
    <path d="M84,20.7c.6,1,.5,1.8-.3,2.4s-1.7.3-2.3-.6l-.6-.9-1.7,1.1-.4-.6,4.3-2.9,1,1.5h0ZM81.9,22.1c.3.5.9.6,1.4.3.5-.4.6-.9.3-1.4l-.6-1-1.7,1.1.6,1h0Z"/>
    <path d="M82.5,28.5l1-1-1.1-2.1-1.3.2-.3-.7,5.4-.9.6,1.2-3.8,3.9-.4-.7h0ZM83,25.3l.9,1.8,2.4-2.4h0l-3.3.6h0Z"/>
    <path d="M84.4,33.4l-.3-.8,1.6-1.9-.4-1-2,.8-.3-.7,4.9-1.9.7,1.8c.4,1.1.2,1.9-.7,2.2-.9.3-1.7,0-2.1-1.1h0c.2.4,0,.9-.2,1.3l-1.1,1.3h0ZM85.9,29.5l.4,1.1c.2.6.7.9,1.3.6.5-.2.7-.7.5-1.3l-.4-1.1-1.8.7h0Z"/>
    <path d="M85.5,37.4l1.2-.7-.6-2.3h-1.4c0,0-.2-.8-.2-.8l5.5.4.3,1.3-4.6,2.9-.2-.8h0ZM86.7,34.4l.5,2,2.9-1.8h0l-3.4-.2h0Z"/>
    <path d="M86.6,40.9l.2,2.3h-.6c0,0-.3-3-.3-3l5.2-.5v.7c0,0-4.5.5-4.5.5Z"/>
    <path d="M86.2,44l5.2-.2v.7s-5.2.2-5.2.2v-.7Z"/>
    <path d="M88.9,45.7c1.7,0,2.6,1,2.6,2.4,0,1.2-.8,1.9-2.1,2v-.7c.9-.1,1.4-.6,1.5-1.4,0-1-.7-1.6-2-1.6-1.3,0-2.1.5-2.1,1.4,0,.8.5,1.3,1.3,1.5v.7c-1.3-.2-2-1.1-1.9-2.2,0-1.4,1.1-2.2,2.8-2.2h0Z"/>
    <path d="M88.6,51c1.7.3,2.5,1.3,2.2,2.8-.2,1.4-1.4,2.1-3,1.8-1.7-.3-2.5-1.3-2.2-2.8.3-1.4,1.4-2.1,3-1.8ZM87.9,54.8c1.3.2,2.1-.2,2.3-1.2.2-1-.5-1.7-1.8-1.9-1.3-.2-2.1.2-2.3,1.2-.2,1,.5,1.7,1.8,1.9h0Z"/>
    <path d="M83.8,59.7l.2-.8,2.5-.5.3-1.1-2.1-.6.2-.7,5,1.5-.6,1.8c-.3,1.1-1.1,1.6-1.9,1.3-.9-.3-1.3-1.1-1-2.2h0c-.1.4-.5.7-1,.8l-1.7.4ZM87.4,57.5l-.4,1.2c-.2.6,0,1.1.6,1.3.6.2,1,0,1.2-.7l.4-1.2-1.8-.5Z"/>
    <path d="M83.6,63.8l.7.3-.4.7-.7-.3.4-.7Z"/>
    <path d="M81.1,71.1c-.6.9-1.4,1.1-2.2.6-.8-.5-.8-1.4-.2-2.3l1.2-1.7,4.3,3-1.2,1.7c-.5.7-1.2.9-1.8.5-.6-.4-.6-1.1,0-1.8h0c0,0,0,0,0,0ZM79.2,69.7c-.3.5-.3,1,.2,1.3.5.3.9.2,1.3-.3l.8-1.2-1.5-1.1s-.8,1.2-.8,1.2ZM82.7,71.7l.6-.9-1.4-1-.6.9c-.3.5-.3.9.2,1.2s.9.2,1.2-.3h0Z"/>
    <path d="M79.3,72.9c1.2,1.1,1.4,2.4.4,3.5-1,1.1-2.3,1.1-3.5,0-1.2-1.1-1.4-2.4-.4-3.5,1-1.1,2.3-1.1,3.6,0h0ZM76.7,75.8c1,.9,1.9,1,2.6.2.7-.7.5-1.7-.5-2.6s-1.9-1-2.6-.2c-.7.7-.5,1.7.5,2.5Z"/>
    <path d="M74.7,81.2l-.4-.4,1.2-1.1-3.1-3.5.6-.5,3.1,3.5,1.2-1.1.4.4s-2.9,2.6-2.9,2.6Z"/>
    <path d="M70.4,78.6l-2.3,1.6-.3-.5,2.9-2.1,3.1,4.2-2.8,2-.3-.5,2.2-1.6-1-1.3-2,1.4-.3-.5,2-1.4-1.1-1.5h0Z"/>
    <path d="M66.8,81.1l-2,1.2-.3-.5,2.7-1.6,2.6,4.5-.6.4-2.3-4h0Z"/>
    <path d="M63.4,82.9l-2.2,1-.2-.6,2.8-1.3,2.2,4.7-.7.3-1.9-4.2h0Z"/>
    <path d="M57.2,84.6l.8,1.1,2.3-.8v-1.4s.7-.2.7-.2v5.5s-1.2.4-1.2.4l-3.3-4.4.8-.2h0ZM60.3,85.6l-1.9.6,2,2.8h0v-3.4c0,0,0,0,0,0Z"/>
    <path d="M56.6,86.7l-.7.2c-.2-.8-.8-1.1-1.6-1-.8.2-1.2.6-1.1,1.2.2.7.8.7,1.6.6.9,0,1.8,0,2,1,.2.9-.4,1.6-1.6,1.9-1.1.2-1.9-.3-2.2-1.3l.7-.2c.2.7.7,1.1,1.4.9s1-.5.9-1.1c-.1-.6-.8-.6-1.5-.5-.9,0-1.9.1-2.2-1.1-.2-1,.4-1.7,1.7-2,1.2-.2,2.1.3,2.4,1.4h0Z"/>
    <path d="M48.2,91.4c-1.1,0-1.8-.5-1.9-1.5,0-1,.6-1.6,1.7-1.7h1.1c0,0-.1-2.1-.1-2.1h.7s.3,5.2.3,5.2h-1.8c0,.1,0,0,0,0ZM48.1,88.8c-.6,0-1,.4-1,1.1,0,.6.4,1,1.1.9h1.2c0,0-.1-2.1-.1-2.1h-1.1c0,0,0,0,0,0Z"/>
    <path d="M42.3,86.1l.3,1.3h2.4c0,.1.5-1.2.5-1.2h.8s-2,5.2-2,5.2h-1.3c0,0-1.5-5.3-1.5-5.3h.8s0,0,0,0ZM44.8,88.1h-2c0,0,.8,3.2.8,3.2h0s1.2-3.2,1.2-3.2Z"/>
    <path d="M37,85.4h.8c0,.1.9,2.5.9,2.5l1.1.2.3-2.2h.7c0,.1-.8,5.3-.8,5.3l-1.9-.3c-1.2-.2-1.7-.8-1.6-1.7.2-1,.9-1.4,2-1.2h0c-.4,0-.8-.4-1-.9l-.6-1.6h0ZM39.7,88.6l-1.2-.2c-.7-.1-1.1.2-1.2.8,0,.6.2,1,.9,1.1l1.2.2.3-1.9Z"/>
    <path d="M33.1,84.2v1.4s2.3.7,2.3.7l.8-1.2.7.2-3.1,4.5-1.2-.4-.2-5.5s.8.2.8.2ZM35,86.8l-1.9-.6v3.4h0l1.9-2.8h0Z"/>
    <path d="M29.5,83.5l-2.2-1,.2-.6,2.8,1.3-2.1,4.8-.7-.3s1.9-4.2,1.9-4.2Z"/>
    <path d="M27,81.6l-2.5,4.6-.6-.3,2.5-4.6.6.3Z"/>
    <path d="M24.1,83.1c-.9,1.4-2.2,1.8-3.4,1-1-.7-1.3-1.7-.7-2.8l.6.4c-.3.8-.2,1.5.5,1.9.8.5,1.7.2,2.4-.9.7-1.1.6-2.1-.2-2.6-.6-.4-1.4-.3-2,.4l-.6-.4c.8-1,1.9-1.2,2.9-.5,1.2.8,1.4,2.1.5,3.5h0Z"/>
    <path d="M19.7,80.2c-1.1,1.3-2.4,1.5-3.5.6-1.1-.9-1.1-2.2,0-3.5,1.1-1.3,2.4-1.5,3.5-.6,1.1.9,1.1,2.3,0,3.5h0ZM16.7,77.7c-.8,1-.9,2-.1,2.6.8.6,1.7.4,2.5-.6.8-1,.9-2,.1-2.6-.7-.6-1.7-.4-2.5.6Z"/>
    <path d="M14.6,71.7l.6.6-.8,2.4.8.8,1.6-1.5.5.5-3.8,3.6-1.3-1.4c-.8-.8-.9-1.7-.2-2.3.7-.7,1.6-.6,2.4.3h0c-.3-.3-.4-.8-.2-1.3,0,0,.5-1.7.5-1.7ZM14.7,75.9l-.8-.9c-.4-.5-1-.5-1.4-.1-.4.4-.4.9,0,1.4l.8.9,1.4-1.3Z"/>
    <path d="M11.1,69.5l-.6.4-.5-.7.6-.4.5.7Z"/>
    <path d="M6.1,63.6c-.4-1-.2-1.8.6-2.2.9-.4,1.6,0,2.1,1l.9,1.9-4.7,2.2-.9-1.9c-.4-.8-.2-1.5.5-1.8.6-.3,1.2,0,1.6.8h0,0c0,0,0,0,0,0ZM4.8,64.7l.5,1,1.5-.7-.5-1c-.2-.5-.7-.7-1.1-.5-.5.2-.6.7-.4,1.2ZM8.3,62.7c-.3-.6-.7-.7-1.2-.5-.5.2-.7.7-.4,1.3l.6,1.3,1.6-.8-.6-1.3h0Z"/>
    <path d="M5.4,61.2c-1.6.5-2.8,0-3.3-1.4-.5-1.4.2-2.5,1.8-3s2.8,0,3.3,1.4c.4,1.4-.2,2.5-1.8,3h0ZM4.2,57.5c-1.2.4-1.8,1.2-1.5,2.1.3.9,1.2,1.2,2.5.8,1.2-.4,1.8-1.2,1.5-2.1-.3-.9-1.2-1.2-2.4-.8h0Z"/>
    <path d="M.6,53h.6c0-.1.3,1.4.3,1.4l4.5-.9.2.7-4.5.9.3,1.5h-.6c0,.1-.8-3.7-.8-3.7h0Z"/>
    <path d="M4.9,50.6l-.3-2.8h.6c0,0,.3,3.5.3,3.5l-5.2.5-.3-3.5h.6c0,0,.3,2.6.3,2.6l1.6-.2-.2-2.5h.6c0,0,.2,2.4.2,2.4l1.8-.2h0Z"/>
    <path d="M4.6,46.2v-2.4h.7v3.1c0,0-5.3,0-5.3,0v-.7s4.6,0,4.6,0Z"/>
    <path d="M4.8,42.4l.2-2.3h.6c0,0-.3,3.2-.3,3.2l-5.2-.5v-.7c0,0,4.7.4,4.7.4Z"/>
    <path d="M6.3,36.1h-1.4c0,.1-.5,2.5-.5,2.5l1.2.7-.2.7-4.8-2.7.3-1.3,5.5-.7-.2.8h0ZM4,38.3l.4-2-3.4.3h0s3,1.6,3,1.6Z"/>
    <path d="M4.9,34.6l.2-.7c.8.2,1.4-.1,1.6-.9.2-.8,0-1.3-.5-1.5-.7-.2-1,.4-1.3,1.1-.4.8-.8,1.6-1.9,1.3-.9-.3-1.2-1.1-.8-2.3.3-1.1,1.2-1.5,2.3-1.3l-.2.7c-.7-.2-1.3.1-1.5.8-.2.7,0,1.2.5,1.4.6.2.9-.4,1.2-1,.4-.8.9-1.7,2-1.4.9.3,1.3,1.2.9,2.5-.4,1.2-1.3,1.7-2.4,1.4h0Z"/>
    <path d="M5,25c.5-1,1.3-1.4,2.2-.9.9.5,1.1,1.3.6,2.3l-.5,1,1.8.9-.3.7-4.7-2.3.8-1.6h0ZM7.3,26.2c.3-.6.1-1.1-.4-1.4-.6-.3-1.1-.1-1.3.5l-.5,1,1.8.9s.5-1,.5-1Z"/>
    <path d="M12.5,22.5l-1.3-.4-1.3,2,.9,1-.4.6-3.4-4.3.7-1.1,5.3,1.4-.4.7h0ZM9.5,23.7l1.1-1.7-3.3-.9h0l2.2,2.6h0Z"/>
    <path d="M15.8,18.3l-.5.6-2.5-.4-.7.9,1.7,1.4-.5.6-4-3.3,1.2-1.5c.7-.9,1.6-1.1,2.3-.5.8.6.8,1.5,0,2.4h0c.3-.3.7-.5,1.2-.4l1.7.3ZM11.7,19l.8-1c.4-.5.4-1,0-1.4-.4-.4-1-.3-1.4.2l-.8,1,1.4,1.2h0Z"/>
    <path d="M18.8,15.4l-1.2-.7-1.7,1.7.6,1.2-.5.5-2.4-4.9.9-.9,4.9,2.6-.6.6h0ZM15.6,15.9l1.4-1.4-3-1.6h0l1.5,3h0Z"/>
    <path d="M21.2,12.7l1.9-1.4.4.5-2.5,1.8-3.1-4.2.6-.4s2.7,3.7,2.7,3.7Z"/>
    <path d="M24.1,11.5l-2.8-4.4.6-.4,2.8,4.4-.6.4h0Z"/>
    <path d="M24.3,8.2c-.8-1.5-.5-2.8.8-3.4,1.1-.5,2.1-.2,2.8.8l-.6.3c-.5-.7-1.2-.9-1.9-.6-.9.4-1,1.4-.4,2.6.6,1.2,1.5,1.6,2.3,1.1.7-.4.9-1.1.7-1.9l.6-.3c.4,1.2,0,2.2-1,2.8-1.3.7-2.5.2-3.3-1.3h0Z"/>
    <path d="M29,5.9c-.6-1.6,0-2.8,1.3-3.3s2.5.2,3.1,1.7c.6,1.6,0,2.8-1.3,3.3-1.4.5-2.5-.2-3.1-1.7ZM32.6,4.6c-.4-1.2-1.2-1.8-2.2-1.4-.9.3-1.2,1.2-.8,2.5.4,1.2,1.2,1.8,2.2,1.4.9-.3,1.2-1.2.8-2.5h0Z"/>
    <path d="M38.9,5.7l-.8.2-1.7-1.9-1.1.2.5,2.1-.7.2-1.2-5.1,1.9-.4c1.1-.3,1.9.1,2.1,1,.2,1-.3,1.7-1.4,1.9h0c.4,0,.9,0,1.2.4l1.2,1.3h0ZM35.2,3.7l1.2-.3c.7-.2.9-.6.8-1.2-.1-.6-.6-.8-1.2-.7l-1.2.3.4,1.8h0Z"/>
    <path d="M42.5,3.9v-.8s.8,0,.8,0v.8s-.8,0-.8,0h0Z"/>
  </g>
</svg>