<?xml version="1.0" encoding="UTF-8"?>
<svg id="Capa_1" xmlns="http://www.w3.org/2000/svg" version="1.1" viewBox="0 0 176 175">
  <!-- Generator: Adobe Illustrator 29.1.0, SVG Export Plug-In . SVG Version: 2.1.0 Build 142)  -->
  <g id="imagen">
    <path d="M67.8,88c-.1,0-.2,0-.4,0-.5-.2-.7-.7-.5-1.2.1-.3,3.5-7.9,12.8-14.5,17.7-12.6,46.1-14.4,46.4-14.4.5,0,1,.4,1,.9,0,.5-.4,1-.9,1-.3,0-28.1,1.8-45.4,14.1-8.8,6.3-12.2,13.7-12.2,13.8-.2.3-.5.6-.8.6Z"/>
    <path d="M57.7,121.6c-.8,0-1.6,0-2.3-.3-2.4-.7-4.5-2.4-5.8-4.9-2.2-4.2-2.4-10.1-.4-15.9,2-6,6.2-11.1,10.8-13.3,2.4-1.1,4.9-1.5,7.1-.9,2.4.7,4.5,2.4,5.8,4.9,2.2,4.2,2.4,10.1.4,15.9-2,6-6.2,11.1-10.8,13.3-1.6.8-3.3,1.1-4.8,1.1h0ZM64.9,87.9c-1.3,0-2.7.3-4,1-4.2,2-8,6.6-9.9,12.2-1.8,5.3-1.7,10.7.2,14.5,1.1,2,2.7,3.4,4.7,3.9,1.8.5,3.8.2,5.8-.7,4.2-2,8-6.6,9.9-12.2,1.8-5.3,1.7-10.7-.2-14.5-1.1-2-2.7-3.4-4.7-4-.6-.2-1.2-.2-1.8-.2h0Z"/>
    <path d="M57,116.4h-.3c-.5,0-.9-.5-.8-1,0-.5.5-.9,1-.8.2,0,5.9.4,10.1-9.5.2-.5.7-.7,1.2-.5.5.2.7.7.5,1.2-4.2,10-10.1,10.7-11.6,10.7Z"/>
    <path d="M101,116.1c-.3,0-.7-.2-.8-.5-.2-.5,0-1,.4-1.2.2-.1,5.2-2.8,3.4-13.4,0-.5.2-1,.8-1.1.5,0,1,.2,1.1.8,2,12.1-4.2,15.3-4.4,15.4-.1,0-.3,0-.4,0h0Z"/>
    <path d="M100.8,121.3c-1.8,0-3.7-.6-5.6-1.6-4.4-2.6-8-8.1-9.3-14.4-1.3-6-.5-11.9,2.2-15.9,1.6-2.4,3.9-4,6.4-4.4,2.3-.4,4.7.1,7,1.5,4.4,2.6,8,8.1,9.3,14.4,1.3,6,.5,11.9-2.2,15.9-1.6,2.4-3.9,4-6.4,4.4-.5,0-1,.1-1.5.1h0ZM96,86.7c-.4,0-.8,0-1.2,0-2,.3-3.8,1.6-5.2,3.6-2.4,3.6-3.1,9-1.9,14.5,1.2,5.7,4.5,10.8,8.5,13.1,2,1.2,3.9,1.6,5.8,1.3,2-.3,3.8-1.6,5.2-3.6,2.4-3.6,3.1-9,1.9-14.5-1.2-5.7-4.5-10.8-8.5-13.1-1.5-.9-3.1-1.4-4.6-1.4h0Z"/>
    <path d="M93.8,87c-.5,0-.9-.4-.9-.9,0-9.7,8.7-23.2,9-23.8.3-.4.9-.6,1.3-.3.4.3.6.8.3,1.3,0,.1-8.7,13.7-8.7,22.8s-.4.9-.9.9h0Z"/>
    <path d="M121,90.5c-.2,0-.4,0-.6-.2-17.3-13.9-12.4-26-10.5-29.5.1-.2.4-.4.6-.5.3,0,.6,0,.8.2,13.9,12.4,12,24.6,10.5,29.2,0,.3-.3.5-.6.6,0,0-.2,0-.3,0ZM111,62.8c-2,4.4-3.8,13.9,9.5,25.1,1.1-4.9,1.5-14.8-9.5-25.1Z"/>
    <path d="M84.4,67c-11.3,0-18.4-4.7-21.4-7.2-.2-.2-.4-.6-.3-.9,0-.3.3-.6.6-.7,21.5-7,31.2,1.5,34.4,5.5.2.2.2.6.2.9,0,.3-.3.5-.6.6-4.7,1.3-9,1.8-12.8,1.8ZM65.6,59.4c4.5,3.3,14.3,8.1,29.7,4.3-3.6-3.8-12.3-9.4-29.7-4.3Z"/>
  </g>
  <g id="texto" transform-origin="center" style="animation: spin 10s linear infinite;">
    <style>
      @keyframes spin {
        from {
          transform: rotate(0deg);
        }
        to {
          transform: rotate(360deg);
        }
      }
    </style>
    <path d="M94.3,4.6c2,.2,3.2,1.2,3,3-.1,1.8-1.5,2.8-3.6,2.6l-4-.3.7-9.9,3.9.3c1.7.1,2.7,1,2.5,2.4,0,1.3-1.1,2-2.8,1.9h.2s0,0,0,0ZM93.9,9.1c1.2,0,1.9-.5,2-1.6,0-1.1-.6-1.8-1.7-1.8l-2.7-.2-.2,3.4,2.7.2ZM93.8,1.4l-2.1-.2-.2,3.2,2.1.2c1.1,0,1.8-.5,1.8-1.5,0-1-.5-1.6-1.6-1.7Z"/>
    <path d="M99,5.7c.6-3.1,2.6-4.7,5.3-4.2,2.7.5,3.9,2.7,3.3,5.8-.6,3.1-2.6,4.7-5.3,4.2-2.7-.5-4-2.7-3.3-5.8ZM106.2,7.1c.5-2.4-.3-4.1-2.1-4.4-1.8-.4-3.2.9-3.7,3.3-.5,2.4.3,4.1,2.2,4.4,1.8.4,3.2-.9,3.7-3.3h0Z"/>
    <path d="M117,5.1l-.3,1.1-2.9-.9-2.6,8.4-1.3-.4,2.6-8.4-2.9-.9.3-1.1,7.1,2.2h0Z"/>
    <path d="M117,14.5l4.9,2.1-.4,1-6.2-2.7,3.9-9.1,6,2.6-.4,1-4.8-2-1.2,2.9,4.3,1.9-.4,1-4.3-1.9-1.4,3.2h0Z"/>
    <path d="M124.6,18l3.9,2.2-.6,1-5.1-2.9,4.8-8.7,1.2.7-4.2,7.7Z"/>
    <path d="M130.8,21.8l3.7,2.5-.7,1-4.9-3.3,5.6-8.2,1.2.8-4.9,7.2h0Z"/>
    <path d="M139.8,30.2l1-2.4-3.5-2.9-2.2,1.4-1.1-.9,8.9-5.4,1.9,1.6-3.9,9.7-1.1-1h0ZM138.3,24.2l2.9,2.5,2.5-5.9h0l-5.4,3.4Z"/>
    <path d="M143.7,29.1l1,1c-1,1.1-1,2.4,0,3.5,1.1,1.1,2.2,1.4,3,.6,1-.9.2-2-.6-3.2-.9-1.4-2-2.9-.4-4.3,1.3-1.3,3-1,4.6.7,1.5,1.6,1.5,3.4,0,5l-.9-1c1-1,1-2.2,0-3.2-.9-1-1.9-1.2-2.7-.5-.8.8-.2,1.8.6,2.9,1,1.4,2.1,3,.4,4.6-1.4,1.3-3.2,1-4.9-.8-1.6-1.7-1.6-3.6,0-5.3h0Z"/>
    <path d="M159.6,38c1.2,1.8,1,3.5-.5,4.6-1.6,1.1-3.2.7-4.5-1.1l-1.2-1.7-3.2,2.2-.8-1.1,8.2-5.7,2,2.9h0ZM155.6,40.8c.7,1,1.7,1.2,2.7.5,1-.7,1.2-1.7.5-2.7l-1.2-1.8-3.2,2.2,1.2,1.8Z"/>
    <path d="M157,52.9l1.8-1.9-2.2-4-2.6.5-.7-1.3,10.3-1.9,1.2,2.2-7.1,7.6-.7-1.3h0ZM157.8,46.8l1.9,3.4,4.5-4.6-6.3,1.3h0Z"/>
    <path d="M160.9,62.2l-.6-1.5,3-3.8-.8-2-3.8,1.6-.5-1.3,9.2-3.7,1.4,3.4c.8,2,.4,3.7-1.2,4.3-1.7.7-3.2,0-4.1-2.1h0c.3.8.2,1.7-.4,2.5l-2,2.6h0ZM163.5,54.6l.9,2.2c.5,1.2,1.4,1.6,2.4,1.1,1-.4,1.4-1.3.9-2.5l-.9-2.2-3.3,1.3Z"/>
    <path d="M163,69.7l2.2-1.4-1.2-4.4h-2.6c0,0-.4-1.5-.4-1.5l10.4.5.7,2.4-8.7,5.8-.4-1.5ZM165.2,64l1,3.7,5.4-3.5-6.4-.2h0Z"/>
    <path d="M164.8,81.1l2.4-1.1-.5-4.5-2.6-.5-.2-1.4,10.2,2.1.3,2.4-9.4,4.4-.2-1.5h0ZM167.8,75.7l.5,3.8,5.9-2.6-6.3-1.2Z"/>
    <path d="M169.9,82.9c3.2,0,5.1,1.6,5.2,4.3,0,2.3-1.4,3.8-3.7,4.2v-1.3c1.6-.3,2.6-1.4,2.5-2.8,0-1.8-1.5-2.9-4-2.9-2.5,0-3.9,1.2-3.9,3,0,1.5,1,2.4,2.7,2.7v1.3c-2.4-.3-3.8-1.8-3.9-4,0-2.8,1.8-4.4,5-4.4h0Z"/>
    <path d="M165.8,94.5l-.6,5.3h-1.1c0-.1.7-6.8.7-6.8l9.9,1.1-.7,6.5h-1.1c0-.1.6-5.3.6-5.3l-3.1-.3-.5,4.7h-1.1c0-.1.5-4.8.5-4.8l-3.4-.4Z"/>
    <path d="M163.8,101.3l9.7,1.8-.3,1.4-9.7-1.8.3-1.4Z"/>
    <path d="M171,113.6l-1.1-.3.8-2.9-8.5-2.3.4-1.4,8.5,2.3.8-2.9,1.1.3-1.9,7.2h0Z"/>
    <path d="M161.6,113.9l-1.9,5-1-.4,2.4-6.3,9.3,3.5-2.3,6.1-1-.4,1.8-4.8-2.9-1.1-1.7,4.4-1.1-.4,1.7-4.4-3.2-1.2h0Z"/>
    <path d="M159.2,123.7l1.3.7-.7,1.4-1.3-.7.7-1.4Z"/>
    <path d="M156,134.7c-1.1,1.7-2.7,2.1-4.1,1.1-1.5-1-1.7-2.6-.5-4.4l2.3-3.4,8.2,5.6-2.2,3.3c-1,1.4-2.2,1.8-3.4,1-1.1-.7-1.1-2-.2-3.3h-.1c0,.1,0,.1,0,.1ZM152.3,132.1c-.7,1-.5,1.9.4,2.5.9.6,1.8.4,2.5-.6l1.5-2.2-2.9-1.9-1.5,2.2h0ZM159,135.9l1.2-1.7-2.6-1.8-1.2,1.7c-.6.9-.5,1.8.3,2.3.8.6,1.7.4,2.3-.5Z"/>
    <path d="M152.7,138.3c2.4,2.1,2.8,4.6,1,6.7-1.8,2.1-4.3,2.1-6.7,0-2.4-2.1-2.8-4.6-1-6.7,1.8-2.1,4.3-2.1,6.7,0h0ZM147.8,143.8c1.9,1.6,3.7,1.8,4.9.4,1.2-1.4.8-3.2-1-4.8-1.9-1.6-3.7-1.8-4.9-.3-1.2,1.4-.8,3.2,1,4.8Z"/>
    <path d="M144.2,154.1l-.8-.8,2.2-2-6-6.5,1-1,6,6.5,2.2-2,.8.8-5.4,5h0Z"/>
    <path d="M136,149.4l-4.2,3.2-.7-.9,5.4-4,6,7.9-5.3,4-.7-.9,4.1-3.1-1.9-2.5-3.8,2.8-.7-.9,3.8-2.8-2.1-2.7h0Z"/>
    <path d="M129.2,154.2l-3.8,2.3-.6-1,5-3.1,5.1,8.5-1.2.7-4.6-7.5h0Z"/>
    <path d="M122.9,157.8l-4,2-.5-1,5.3-2.6,4.3,8.9-1.3.6-3.8-7.9Z"/>
    <path d="M111.1,161.4l1.6,2.1,4.3-1.6v-2.6c-.1,0,1.2-.5,1.2-.5l.3,10.4-2.3.8-6.4-8.2,1.4-.5h0ZM117,163.1l-3.6,1.3,3.9,5.1h0l-.3-6.5Z"/>
    <path d="M110.1,165.4l-1.4.3c-.5-1.5-1.6-2.1-3-1.8-1.5.4-2.2,1.2-2,2.3.3,1.3,1.6,1.2,3,1.1,1.6-.1,3.5-.3,3.9,1.8.4,1.8-.7,3.1-2.9,3.6-2.1.5-3.7-.4-4.3-2.5l1.3-.3c.4,1.4,1.4,2,2.8,1.6,1.3-.3,2-1.1,1.7-2.1-.3-1.1-1.5-1-2.8-.9-1.7.1-3.7.3-4.2-1.9-.4-1.9.7-3.3,3.1-3.8,2.2-.5,4,.4,4.6,2.6h0Z"/>
    <path d="M94.4,174.7c-2.1.2-3.5-.8-3.7-2.7-.2-1.9,1-3.1,3.2-3.3l2.1-.2-.3-3.8h1.4c0-.1.8,9.8.8,9.8l-3.5.3h0ZM94,169.8c-1.2,0-1.9.9-1.8,2.1,0,1.2.9,1.9,2.1,1.7l2.2-.2-.3-3.8-2.2.2Z"/>
    <path d="M82.8,165l.7,2.5h4.5c0,0,.8-2.4.8-2.4h1.4l-3.5,9.9h-2.5c0,0-3.1-10-3.1-10h1.5ZM87.7,168.7h-3.8c0,0,1.8,6.1,1.8,6.1h0l2-6.1h0Z"/>
    <path d="M72.8,163.8l1.6.2,1.8,4.4,2.1.3.6-4.1,1.4.2-1.3,9.8-3.6-.5c-2.2-.3-3.3-1.5-3.1-3.2.2-1.9,1.7-2.8,3.8-2.5-.8-.1-1.6-.7-1.9-1.6l-1.3-3h0ZM78.1,169.8l-2.3-.3c-1.2-.2-2.1.4-2.2,1.5-.2,1.1.5,1.8,1.7,2l2.3.3.5-3.5h0Z"/>
    <path d="M65.2,161.9v2.6c.1,0,4.5,1.1,4.5,1.1l1.4-2.2,1.4.4-5.6,8.8-2.4-.6-.7-10.4,1.5.4h0ZM69.1,166.6l-3.7-1,.3,6.4h0l3.4-5.5Z"/>
    <path d="M54.5,157.8l-.2,2.6,4.2,1.8,1.7-2,1.3.6-6.9,7.8-2.3-1,.9-10.4,1.4.6h0ZM57.7,163.1l-3.5-1.5-.7,6.4h0l4.2-4.9h0Z"/>
    <path d="M50.3,161.3c-1.6,2.8-3.9,3.6-6.3,2.3-2-1.1-2.6-3.1-1.7-5.3l1.2.7c-.5,1.6-.1,2.9,1.1,3.6,1.6.9,3.3.2,4.5-2,1.2-2.2,1-4-.6-4.9-1.3-.7-2.6-.3-3.7,1l-1.2-.7c1.5-1.9,3.5-2.4,5.5-1.3,2.4,1.4,2.9,3.8,1.3,6.6h0Z"/>
    <path d="M42.4,152l-4.3-3.1.7-.9,5.4,4-5.9,8-5.3-3.9.7-.9,4.2,3.1,1.9-2.5-3.8-2.8.7-.9,3.8,2.8,2-2.8h0Z"/>
    <path d="M37.5,146.8l-6.5,7.5-1.1-.9,6.5-7.5,1.1.9Z"/>
    <path d="M23.2,146.9l.8-.8,2.1,2.1,6.2-6.2,1,1-6.2,6.2,2.1,2.1-.8.8-5.2-5.2h0Z"/>
    <path d="M27.6,138.6l-3.4-4.1.9-.7,4.3,5.2-7.7,6.3-4.2-5.1.9-.7,3.3,4,2.4-2-3-3.6.9-.7,3,3.6,2.7-2.2h0Z"/>
    <path d="M20.4,131.7l-1.2.8-.8-1.3,1.2-.8.8,1.3Z"/>
    <path d="M12.4,123.4c-.9-1.8-.5-3.3,1-4.1,1.6-.8,3.1-.1,4.1,1.8l1.8,3.6-8.9,4.4-1.7-3.5c-.7-1.5-.5-2.8.8-3.4,1.1-.6,2.3,0,3,1.5h0v-.2c0,0,0,0,0,0ZM9.9,125.4l.9,1.9,2.9-1.4-.9-1.9c-.5-1-1.3-1.3-2.2-.9-.9.4-1.2,1.3-.7,2.3ZM16.5,121.5c-.5-1.1-1.4-1.4-2.4-.9-1,.5-1.2,1.4-.7,2.4l1.2,2.4,3.1-1.5-1.2-2.4h0Z"/>
    <path d="M10.9,118.7c-3,1.1-5.3.1-6.2-2.5-.9-2.6.3-4.8,3.4-5.8,3-1.1,5.3-.1,6.2,2.5.9,2.6-.3,4.8-3.4,5.8ZM8.5,111.8c-2.3.8-3.3,2.3-2.8,4.1.6,1.8,2.4,2.3,4.7,1.5,2.3-.8,3.3-2.3,2.7-4.1-.6-1.7-2.3-2.3-4.7-1.5h0Z"/>
    <path d="M1.4,103.5l1.1-.2.7,2.9,8.6-2,.3,1.4-8.6,2,.7,2.9-1.1.2-1.6-7.2h0Z"/>
    <path d="M9.6,98.8l-.7-5.3h1.1c0-.1.8,6.5.8,6.5l-9.8,1.2-.8-6.5h1.1c0-.1.6,5,.6,5l3.1-.4-.6-4.7h1.1c0-.1.6,4.5.6,4.5l3.4-.4Z"/>
    <path d="M8.8,90.4v-4.5c-.1,0,1,0,1,0v5.9c.1,0-9.8.2-9.8.2v-1.4s8.7-.2,8.7-.2h0Z"/>
    <path d="M8.9,83.1l.3-4.5h1.1c0,0-.4,6-.4,6L0,83.9v-1.4c0,0,8.8.6,8.8.6h0Z"/>
    <path d="M11.6,71.2l-2.6.3-.8,4.5,2.3,1.2-.2,1.4-9.2-5,.4-2.4,10.3-1.5-.3,1.5h0ZM7.2,75.4l.7-3.8-6.4.8,5.7,3h0Z"/>
    <path d="M8.7,68.3l.4-1.3c1.5.3,2.6-.3,3-1.8.4-1.5,0-2.5-1-2.9-1.3-.4-1.9.8-2.5,2.1-.7,1.5-1.5,3.1-3.5,2.5-1.8-.5-2.4-2.1-1.7-4.3.6-2,2.2-3,4.3-2.5l-.4,1.3c-1.4-.3-2.4.3-2.8,1.6-.4,1.3,0,2.2.9,2.5,1.1.3,1.6-.8,2.2-2,.7-1.6,1.6-3.3,3.7-2.7,1.8.5,2.5,2.3,1.8,4.6-.7,2.2-2.3,3.2-4.5,2.8h0Z"/>
    <path d="M8.3,50.1c.9-2,2.5-2.6,4.2-1.8,1.7.8,2.2,2.4,1.3,4.4l-.9,1.9,3.5,1.6-.6,1.3-9-4.2,1.5-3.2ZM12.8,52.2c.5-1.1.2-2-.9-2.6-1.1-.5-2-.2-2.5.9l-.9,2,3.5,1.6.9-2h0Z"/>
    <path d="M22.6,44.9l-2.5-.6-2.4,3.9,1.7,2-.7,1.2-6.8-7.9,1.3-2.1,10.2,2.3-.8,1.3h0ZM16.9,47.3l2-3.3-6.3-1.6,4.3,4.8h0Z"/>
    <path d="M28.6,36.8l-1,1.2-4.7-.7-1.3,1.7,3.3,2.5-.9,1.1-7.8-6.1,2.2-2.9c1.4-1.7,3-2.2,4.3-1.1,1.5,1.1,1.6,2.8.2,4.6h0c.5-.6,1.4-1,2.3-.8l3.3.4h0ZM20.8,38.4l1.4-1.8c.8-1,.7-2-.2-2.7-.9-.7-1.8-.5-2.6.5l-1.4,1.8,2.8,2.2h0Z"/>
    <path d="M34.1,31.2l-2.3-1.2-3.2,3.3,1.2,2.3-1,1-4.8-9.3,1.7-1.8,9.4,4.6-1.1,1.1h0ZM28,32.2l2.7-2.8-5.7-2.9,3.1,5.7h0Z"/>
    <path d="M42.9,23.9l-2.1-1.5-3.6,2.8.9,2.4-1.1.9-3.4-9.9,2-1.5,8.6,5.9-1.2.9ZM36.7,24.1l3.1-2.3-5.2-3.8h0l2.2,6.1Z"/>
    <path d="M42,18.5c-1.6-2.8-1.2-5.2,1.2-6.6,1.9-1.1,4-.7,5.4,1.1l-1.1.7c-1.1-1.2-2.5-1.6-3.7-.8-1.6.9-1.8,2.8-.5,4.9,1.3,2.1,2.9,2.8,4.5,1.9,1.2-.7,1.6-2.1,1-3.7l1.1-.7c.9,2.2.3,4.2-1.6,5.4-2.4,1.4-4.7.6-6.4-2.2Z"/>
    <path d="M54,16.2l4.9-2.2.5,1-6.1,2.7-4-9.1,6-2.7.5,1-4.7,2.1,1.3,2.9,4.3-1.9.5,1-4.3,1.9,1.4,3.1h0Z"/>
    <path d="M60.8,14.6l-3.3-9.3,1.3-.5,3.3,9.3-1.3.5Z"/>
    <path d="M67.9,2.1l.3,1.1-2.9.8,2.3,8.5-1.4.4-2.3-8.5-2.9.8-.3-1.1,7.2-2h0Z"/>
    <path d="M73,10.1l5.2-.9.2,1.1-6.6,1.1-1.6-9.8,6.5-1.1.2,1.1-5.1.8.5,3.1,4.7-.8.2,1.1-4.7.8.6,3.4h0Z"/>
    <path d="M82.6,7.3v-1.5c0,0,1.5,0,1.5,0v1.5c0,0-1.5,0-1.5,0Z"/>
  </g>
</svg>